<svg xmlns="http://www.w3.org/2000/svg" fill="none" viewBox="0 0 48 48">
  
  
  
<g transform="matrix(1,0,0,1,0,0)"><path fill="#ACB4C9" fill-rule="evenodd" d="M34.1284 4.17191C34.3696 4.18629 36.4133 4.41337 39.9999 7.99998C43.6181 11.6182 43.8141 13.5854 43.8248 13.7879C43.8249 13.7924 43.8251 13.797 43.8253 13.8016C43.8254 13.8041 43.8254 13.8053 43.8254 13.8053L43.8255 13.8052C43.9293 16.4095 44 19.7451 44 24C44 33.2895 43.6629 39.2081 43.3802 42.5387C43.2495 44.0781 41.5071 44.756 40.3203 43.7669L37 41L34.2658 43.7342C33.5452 44.4548 32.398 44.5184 31.6022 43.8817L28 41L25.4142 43.5858C24.6332 44.3668 23.3668 44.3668 22.5858 43.5858L20 41L16.3978 43.8817C15.602 44.5184 14.4548 44.4548 13.7342 43.7342L11 41L7.6797 43.7669C6.49285 44.756 4.75053 44.0781 4.61984 42.5387C4.33709 39.2081 4 33.2895 4 24C4 15.4507 4.28551 10.6131 4.55141 7.96144C4.73985 6.08233 6.08233 4.73985 7.96144 4.55141C10.6131 4.28551 15.4507 4 24 4C28.2189 4 31.5339 4.06953 34.1284 4.17191Z" clip-rule="evenodd"></path><path fill="#576684" d="M43.8255 13.8062C42.9504 13.9139 41.7134 14.0009 40 14.0009C38.741 14.0009 37.7393 13.9539 36.9493 13.8863C35.2292 13.739 34.1117 12.4239 34.0456 10.6988C34.0183 9.98491 34 9.09751 34 8.00091C34 6.22796 34.0478 5.00184 34.1043 4.17188C34.1043 4.17188 36.1745 4.17545 40 8.00091C43.8255 11.8264 43.8255 13.8062 43.8255 13.8062Z"></path><path fill="#576684" fill-rule="evenodd" d="M22.4076 30.9311C21.5042 30.3678 20.8164 29.5436 20.3442 28.4585H27.3351C27.6431 28.4585 27.8895 28.3542 28.0743 28.1455C28.2796 27.9369 28.3822 27.6239 28.3822 27.2066C28.3822 27.0722 28.3689 26.9374 28.3449 26.8039C28.2436 26.2413 27.6814 25.9233 27.1097 25.9233H19.7664C19.7352 25.6401 19.7192 25.3514 19.7192 25.0583C19.7192 24.7574 19.7361 24.4611 19.7689 24.1706H27.3351C27.6431 24.1706 27.8895 24.0767 28.0743 23.8889C28.2796 23.6802 28.3822 23.3568 28.3822 22.9186C28.3822 22.7866 28.3683 22.6515 28.3436 22.5165C28.2406 21.9542 27.6814 21.6354 27.1097 21.6354H20.3442C20.8164 20.5086 21.5042 19.6635 22.4076 19.1002C23.311 18.5368 24.3478 18.2551 25.5181 18.2551C26.5036 18.2551 27.3249 18.4011 27.9819 18.6933C28.2265 18.7943 28.4626 18.9011 28.6902 19.0136C29.3727 19.3513 30.2714 19.4335 30.6425 18.7686C30.7905 18.5034 30.8768 18.204 30.8768 17.8795C30.8768 17.483 30.7331 17.1179 30.4457 16.784C30.1787 16.4293 29.7886 16.1268 29.2754 15.8764C28.7826 15.6051 28.1667 15.3965 27.4275 15.2504C26.7089 15.0835 25.9082 15 25.0254 15C22.9517 15 21.1347 15.5634 19.5743 16.6901C18.0139 17.8169 16.936 19.4653 16.3406 21.6354H15.0471C14.7597 21.6354 14.5133 21.7293 14.308 21.9171C14.1027 22.1049 14 22.4387 14 22.9186C14 23.1057 14.0146 23.2779 14.0439 23.4352C14.1384 23.9422 14.6672 24.1706 15.1829 24.1706H16.1074V25.9233H15.0471C14.7597 25.9233 14.5133 26.0172 14.308 26.205C14.1027 26.3928 14 26.7267 14 27.2066C14 27.3772 14.0132 27.5368 14.0396 27.6851C14.1335 28.2133 14.6827 28.4585 15.2192 28.4585H16.3098C16.5767 29.5436 16.9873 30.493 17.5417 31.3067C18.1165 32.1205 18.7941 32.8091 19.5743 33.3725C20.3545 33.915 21.2271 34.3219 22.192 34.5931C23.1775 34.8644 24.2246 35 25.3333 35C26.442 35 27.3557 34.8957 28.0743 34.687C28.8134 34.4784 29.3883 34.2488 29.7989 33.9984C30.5996 33.5394 31 32.9447 31 32.2144C31 31.9204 30.9355 31.6471 30.8208 31.3993C30.4849 30.6737 29.5273 30.7322 28.8056 31.0765C28.5908 31.179 28.3675 31.2766 28.1359 31.3693C27.4789 31.6197 26.6679 31.7449 25.7029 31.7449C24.4094 31.7449 23.311 31.4737 22.4076 30.9311Z" clip-rule="evenodd"></path></g></svg>