<svg xmlns="http://www.w3.org/2000/svg" fill="none" viewBox="0 0 48 48">
  
  
  
<g transform="matrix(1,0,0,1,0,0)"><path fill="#acb4c9" d="M16.5559 4.0636C16.5559 4.0636 14.1076 5 9.60764 9.5C5.12411 13.9835 4.18389 16.4361 4.17706 16.454C4.06779 18.5905 4 21.089 4 24C4 32.6855 4.60351 37.6989 5.11162 40.3807C5.43804 42.1035 6.78233 43.2843 8.52567 43.4724C10.8789 43.7263 15.0315 44 22 44C28.9685 44 33.1211 43.7263 35.4743 43.4724C37.2177 43.2843 38.562 42.1035 38.8884 40.3807C39.3965 37.6989 40 32.6855 40 24C40 15.3145 39.3965 10.3011 38.8884 7.61934C38.562 5.89653 37.2177 4.7157 35.4743 4.52758C33.1211 4.27365 28.9685 4 22 4C19.9503 4 18.1442 4.02371 16.5559 4.0636Z"></path><path fill="#576684" d="M4.17706 16.4539C7.05661 17.1782 10.4564 17.2263 13.3929 16.3292C14.6344 15.9499 15.6024 14.9828 16.0214 13.7542C17.0652 10.6935 17.3231 6.94714 16.5559 4.06348C16.5559 4.06348 14.1077 4.99988 9.60767 9.49988C5.10767 13.9999 4.17706 16.4539 4.17706 16.4539Z"></path><path fill="#576684" d="M43.1716 24.5561C44.7337 22.994 44.7337 20.4613 43.1716 18.8992L40.1011 15.8288C38.539 14.2667 36.0063 14.2667 34.4442 15.8288L23.1716 27.1015C22.4214 27.8517 22 28.8691 22 29.9299L22 35.0004C22 36.1049 22.8954 37.0004 24 37.0004L29.0704 37.0004C30.1313 37.0004 31.1487 36.5789 31.8988 35.8288L43.1716 24.5561Z"></path></g></svg>