<?xml version="1.0" encoding="utf-8"?>
<!-- Generator: Adobe Illustrator 25.4.1, SVG Export Plug-In . SVG Version: 6.00 Build 0)  -->
<svg version="1.1" id="Layer_1" xmlns="http://www.w3.org/2000/svg" xmlns:xlink="http://www.w3.org/1999/xlink" x="0px" y="0px"
	 viewBox="0 0 841.89 595.28" style="enable-background:new 0 0 841.89 595.28;" xml:space="preserve">
<style type="text/css">
	.st0{fill:#FFFFFF;}
</style>
<path class="st0" d="M211.72,268.63h-16.75v-7.94h41.26v7.94h-16.59v56.34h-7.92V268.63z"/>
<path class="st0" d="M269.89,309.92h-22.94l-3.55,15.04h-7.84l14.69-64.28h16.34l14.69,64.28h-7.84L269.89,309.92z M248.6,301.98
	h19.64l-7.67-33.73h-4.29L248.6,301.98z"/>
<path class="st0" d="M297.37,268.63h-16.75v-7.94h41.26v7.94h-16.59v56.34h-7.92V268.63z"/>
<path class="st0" d="M334.25,320.9c-3.36-3.39-5.03-8.77-5.03-16.12v-44.1h7.92v44.29c0,8.72,4.1,13.08,12.29,13.08
	c4.29,0,7.5-1.06,9.61-3.18c2.12-2.12,3.18-5.42,3.18-9.9v-44.29h7.84v44.1c0,7.35-1.69,12.72-5.07,16.12
	c-3.38,3.4-8.51,5.09-15.39,5.09C342.72,325.99,337.61,324.3,334.25,320.9z"/>
<path class="st0" d="M384.28,324.48l-2.98-0.49l0.65-7.21c7.45,0.94,13.13,1.36,17.03,1.27c7.42-0.18,11.04-4.1,10.86-11.76
	c-0.05-2.12-0.48-3.8-1.28-5.06c-0.8-1.26-2.05-2.25-3.75-2.99c-1.7-0.74-4.07-1.44-7.11-2.12c-4.48-1.07-7.98-2.31-10.49-3.72
	c-2.51-1.4-4.37-3.24-5.58-5.52c-1.21-2.27-1.86-5.28-1.95-9.02c-0.14-5.92,1.32-10.41,4.38-13.47c3.06-3.06,7.64-4.67,13.75-4.82
	c2.25-0.05,4.69,0.04,7.31,0.29c2.62,0.25,6.08,0.73,10.39,1.43l-0.48,7.3c-7.56-0.81-13.01-1.18-16.37-1.1
	c-7.53,0.18-11.23,3.39-11.07,9.61c0.06,2.3,0.53,4.1,1.41,5.39c0.88,1.29,2.27,2.33,4.16,3.12c1.89,0.8,4.74,1.65,8.56,2.55
	c3.99,1.03,7.1,2.2,9.33,3.51c2.23,1.32,3.88,3.05,4.95,5.21c1.07,2.16,1.65,5.01,1.73,8.56c0.16,6.6-1.3,11.62-4.38,15.06
	c-3.08,3.44-7.65,5.23-13.69,5.38C395.87,325.98,390.74,325.51,384.28,324.48z"/>
<g>
	<g>
		<polygon class="st0" points="533.75,402.4 530.9,402.42 530.87,402.28 481.26,228.55 435.07,403.55 432.25,403.58 432.32,403.34 
			479.8,223.45 478.7,219.61 430.15,403.55 427.32,403.58 427.39,403.34 477.24,214.51 476.1,210.55 425.22,403.24 422.4,403.27 
			422.47,403.04 474.77,205.93 473.67,202.11 420.29,403.29 417.46,403.3 417.53,403.06 472.21,197.01 471.11,193.19 415.35,403.33 
			412.53,403.34 412.59,403.1 469.52,187.63 469.53,187.58 470.89,182.46 482.65,223.43 		"/>
	</g>
</g>
<path class="st0" d="M541.13,336.54h21.29c6.27,0,10.96,1.65,14.07,4.95c3.11,3.3,4.66,8.32,4.66,15.04c0,9.47-3.27,15.7-9.82,18.69
	l10.07,25.6h-8.66l-9.16-23.73h-14.52v23.73h-7.92V336.54z M562.5,369.33c3.47,0,6.09-1.07,7.88-3.22c1.79-2.15,2.68-5.28,2.68-9.39
	c0-4.05-0.89-7.13-2.68-9.25c-1.79-2.12-4.44-3.18-7.96-3.18h-13.37v25.04H562.5z"/>
<path class="st0" d="M599.56,344.48h-16.75v-7.94h41.26v7.94h-16.59v56.34h-7.92V344.48z"/>
<path class="st0" d="M631.91,336.54h7.92v64.28h-7.92V336.54z"/>
<path class="st0" d="M639.35,412.91l7.9-8.81c-5.39,0.06-11.32,0.13-17.73,0.2l-7.63,8.52C628.1,412.85,633.93,412.87,639.35,412.91
	z M613.77,404.49c-5.2,0.06-10.63,0.12-16.27,0.19l-7.21,7.99c5.55,0.03,10.92,0.05,16.09,0.08L613.77,404.49z M656.99,370.95
	c1.56,2.43,3.91,4.36,7.06,5.77c3.16,1.42,7.55,2.64,13.15,3.65c5.37,0.88,9.39,1.73,12.05,2.57c2.67,0.84,4.63,1.97,5.9,3.42
	c1.27,1.44,1.97,3.48,2.11,6.13c0.37,7.15-4.71,10.98-15.26,11.5c-0.57,0.03-7.73,0.13-20.02,0.27l-8.11,8.71
	c18.23,0.08,29.03,0.11,29.52,0.09c8.54-0.43,14.91-2.46,19.12-6.11c4.21-3.66,6.14-8.87,5.79-15.66
	c-0.23-4.29-1.21-7.72-2.97-10.28c-1.75-2.56-4.4-4.6-7.95-6.11c-3.55-1.51-8.47-2.78-14.78-3.83c-4.28-0.65-7.61-1.36-10-2.13
	c-2.39-0.78-4.17-1.87-5.32-3.29c-1.15-1.41-1.79-3.33-1.92-5.76c-0.45-8.8,4.51-13.45,14.9-13.96c5.46-0.27,13.42-0.03,23.87,0.74
	l0.73-8.31l-4.19-0.44c-9.07-0.91-16.26-1.24-21.57-0.97c-8.46,0.42-14.81,2.67-19.03,6.75c-4.22,4.07-6.14,9.91-5.74,17.48
	C654.56,365.26,655.43,368.52,656.99,370.95z M136.85,284.26c1.56,2.43,3.91,4.36,7.06,5.77c3.16,1.42,7.55,2.64,13.15,3.65
	c5.37,0.88,9.39,1.73,12.05,2.57c2.67,0.84,4.63,1.97,5.9,3.42s1.97,3.48,2.11,6.13c0.37,7.15-4.71,10.98-15.26,11.5
	c-0.57,0.03-7.73,0.13-20.02,0.27l-8.11,8.71c18.23,0.08,29.03,0.11,29.52,0.09c8.54-0.43,14.91-2.46,19.12-6.11
	c4.21-3.65,6.14-8.87,5.79-15.66c-0.23-4.29-1.21-7.72-2.97-10.28c-1.75-2.56-4.4-4.6-7.95-6.11c-3.55-1.51-8.47-2.78-14.78-3.83
	c-4.28-0.65-7.61-1.36-10-2.13c-2.39-0.78-4.17-1.87-5.32-3.29c-1.15-1.41-1.79-3.33-1.92-5.76c-0.45-8.8,4.51-13.45,14.9-13.96
	c5.46-0.27,13.42-0.03,23.87,0.74l0.73-8.31l-4.19-0.44c-9.07-0.91-16.26-1.24-21.57-0.97c-8.46,0.42-14.81,2.67-19.03,6.75
	c-4.22,4.07-6.14,9.91-5.74,17.48C134.41,278.57,135.29,281.83,136.85,284.26z"/>
<line class="st0" x1="256.79" y1="268.78" x2="243.79" y2="324.78"/>
<line class="st0" x1="260.79" y1="268.78" x2="273.79" y2="324.78"/>
</svg>
