<?xml version="1.0" encoding="utf-8"?>
<!-- Generator: Adobe Illustrator 25.4.1, SVG Export Plug-In . SVG Version: 6.00 Build 0)  -->
<svg version="1.1" id="Layer_1" xmlns="http://www.w3.org/2000/svg" xmlns:xlink="http://www.w3.org/1999/xlink" x="0px" y="0px"
	 viewBox="0 0 1920 560" style="enable-background:new 0 0 1920 560;" xml:space="preserve">
<style type="text/css">
	.st0{stroke:#231F20;stroke-miterlimit:10;}
	.st1{opacity:0.67;}
	.st2{fill:none;stroke:#000000;stroke-width:2;stroke-miterlimit:10;}
	.st3{fill:none;stroke:#231F20;stroke-miterlimit:10;}
</style>
<path class="st0" d="M742.89,223.18h-38.72v-18.36h95.37v18.36H761.2v130.23h-18.31V223.18z"/>
<path class="st0" d="M856.32,221.22h-11.56l-28.63,132.19h-18.12l33.95-148.58h37.76l33.95,148.58h-18.12L856.32,221.22z"/>
<path class="st0" d="M940.87,223.18h-38.72v-18.36h95.37v18.36h-38.34v130.23h-18.31V223.18z"/>
<path class="st0" d="M1026.12,344.01c-7.76-7.85-11.64-20.26-11.64-37.25V204.82h18.31v102.37c0,20.16,9.47,30.23,28.42,30.23
	c9.92,0,17.33-2.45,22.22-7.34c4.89-4.89,7.34-12.53,7.34-22.89V204.82h18.12v101.93c0,16.99-3.91,29.41-11.73,37.25
	c-7.82,7.85-19.68,11.77-35.57,11.77C1045.7,355.78,1033.88,351.86,1026.12,344.01z"/>
<path class="st0" d="M1141.75,352.29l-6.9-1.13l1.51-16.67c17.22,2.18,30.35,3.15,39.37,2.93c17.16-0.42,25.53-9.48,25.1-27.18
	c-0.12-4.89-1.1-8.79-2.95-11.7c-1.85-2.91-4.74-5.21-8.66-6.92c-3.92-1.71-9.4-3.34-16.43-4.9c-10.36-2.48-18.45-5.35-24.25-8.59
	c-5.8-3.24-10.1-7.5-12.9-12.76c-2.8-5.26-4.3-12.21-4.51-20.84c-0.33-13.67,3.04-24.05,10.12-31.14
	c7.08-7.08,17.67-10.8,31.78-11.14c5.21-0.13,10.84,0.1,16.9,0.67c6.05,0.58,14.06,1.68,24.02,3.31l-1.12,16.88
	c-17.47-1.88-30.08-2.73-37.84-2.54c-17.42,0.42-25.95,7.83-25.6,22.22c0.13,5.33,1.21,9.48,3.26,12.45
	c2.04,2.97,5.25,5.38,9.62,7.22c4.37,1.84,10.97,3.81,19.79,5.89c9.21,2.37,16.4,5.08,21.56,8.12c5.16,3.04,8.98,7.06,11.45,12.04
	c2.47,4.98,3.81,11.57,4.01,19.78c0.37,15.26-3.01,26.86-10.13,34.81c-7.12,7.95-17.67,12.09-31.65,12.43
	C1168.55,355.75,1156.7,354.67,1141.75,352.29z"/>
<g>
	<g>
		<polygon points="1487.27,532.41 1480.69,532.46 1480.6,532.14 1365.94,130.53 1259.17,535.07 1252.64,535.14 1252.8,534.59 
			1362.56,118.75 1360.02,109.88 1247.8,535.07 1241.25,535.14 1241.41,534.59 1356.64,98.1 1354.01,88.94 1236.41,534.34 
			1229.88,534.43 1230.04,533.87 1350.93,78.25 1348.39,69.42 1225,534.46 1218.45,534.48 1218.61,533.93 1345.01,57.63 
			1342.48,48.8 1213.59,534.55 1207.06,534.57 1207.21,534.02 1338.79,35.94 1338.83,35.84 1341.97,24 1369.15,118.71 		"/>
	</g>
</g>
<path class="st0" d="M1504.33,380.16h49.21c14.49,0,25.33,3.82,32.52,11.45c7.18,7.63,10.78,19.22,10.78,34.77
	c0,21.89-7.57,36.28-22.7,43.19l23.27,59.17h-20.03l-21.17-54.86h-33.57v54.86h-18.31V380.16z M1553.73,455.97
	c8.01,0,14.08-2.48,18.22-7.45c4.13-4.97,6.2-12.2,6.2-21.7c0-9.36-2.07-16.49-6.2-21.38c-4.14-4.89-10.27-7.34-18.41-7.34h-30.9
	v57.88H1553.73z"/>
<path class="st0" d="M1639.4,398.52h-38.72v-18.36h95.37v18.36h-38.34v130.23h-18.31V398.52z"/>
<path class="st0" d="M1714.17,380.16h18.31v148.58h-18.31V380.16z"/>
<path class="st0" d="M1770.95,448.86c3,4.77,7.54,8.56,13.61,11.35c6.09,2.79,14.54,5.19,25.34,7.17
	c10.35,1.73,18.09,3.41,23.22,5.05c5.14,1.64,8.92,3.88,11.37,6.71s3.8,6.85,4.06,12.05c0.72,14.05-9.07,21.58-29.41,22.61
	c-1.1,0.05-14.9,0.25-38.57,0.54l-15.62,17.12c35.14,0.15,55.94,0.22,56.89,0.17c16.46-0.84,28.74-4.83,36.85-12
	c8.11-7.18,11.83-17.44,11.16-30.78c-0.44-8.43-2.33-15.17-5.71-20.21c-3.38-5.04-8.49-9.05-15.32-12
	c-6.83-2.97-16.33-5.47-28.47-7.54c-8.24-1.28-14.66-2.67-19.27-4.2s-8.03-3.68-10.25-6.46c-2.22-2.77-3.45-6.55-3.7-11.31
	c-0.87-17.29,8.69-26.43,28.72-27.44c10.52-0.54,25.86-0.05,46,1.46l1.4-16.33l-8.07-0.86c-17.48-1.8-31.34-2.43-41.57-1.91
	c-16.31,0.82-28.53,5.25-36.68,13.28c-8.12,8.01-11.83,19.47-11.07,34.36C1766.26,437.68,1767.95,444.08,1770.95,448.86z
	 M576.23,273.01c3.34,5.08,8.39,9.13,15.15,12.1c6.78,2.97,16.19,5.53,28.21,7.64c11.52,1.84,20.14,3.63,25.85,5.39
	c5.73,1.75,9.93,4.13,12.66,7.16s4.23,7.3,4.52,12.85c0.8,14.98-10.1,23.02-32.74,24.11c-1.23,0.05-16.59,0.27-42.94,0.57
	l-17.39,18.26c39.12,0.16,62.28,0.23,63.34,0.18c18.32-0.9,32-5.16,41.02-12.8c9.02-7.66,13.17-18.6,12.43-32.83
	c-0.49-8.99-2.6-16.18-6.36-21.55c-3.76-5.37-9.45-9.65-17.05-12.8c-7.61-3.17-18.17-5.84-31.7-8.04
	c-9.17-1.36-16.31-2.85-21.45-4.48c-5.14-1.63-8.94-3.92-11.41-6.89c-2.47-2.95-3.85-6.98-4.12-12.06
	c-0.97-18.44,9.68-28.19,31.97-29.27c11.71-0.57,28.78-0.05,51.21,1.56l1.56-17.42l-8.98-0.91c-19.46-1.92-34.89-2.6-46.28-2.04
	c-18.15,0.88-31.76,5.6-40.83,14.16c-9.04,8.54-13.17,20.76-12.32,36.64C571.01,261.09,572.89,267.91,576.23,273.01z"/>
<g>
	<g class="st1">
		<line class="st2" x1="218.42" y1="259.2" x2="250.42" y2="267.84"/>
		<line class="st2" x1="285.98" y1="209.29" x2="278.87" y2="207.36"/>
		<polyline class="st2" points="499.33,383.05 499.33,373.21 499.33,369.88 		"/>
		<line class="st2" x1="499.33" y1="328.68" x2="499.33" y2="276.49"/>
		<line class="st2" x1="335.76" y1="164.16" x2="367.76" y2="172.8"/>
		<line class="st2" x1="340.41" y1="184.61" x2="339.6" y2="184.41"/>
		<path class="st2" d="M310.87,146.88l32,8.64c8.3,5.76,16.59,11.52,24.89,17.28"/>
		<line class="st2" x1="367.76" y1="192.01" x2="367.76" y2="172.8"/>
		<line class="st2" x1="403.31" y1="224.64" x2="403.31" y2="267.84"/>
		<path class="st2" d="M373.02,216.46c0-0.29,0-0.43,0-0.43l-33.71-31.71l28.44,7.69l3.56,0.95c10.67,10.57,21.33,21.11,32,31.68
			L373.02,216.46z"/>
		<g>
			<path class="st2" d="M373.59,466.55h-34.24l0.25-281.97v-0.75l0.82,0.78l32.6,31.42c0,0,0,0.14,0,0.43
				C373.02,220.06,373.3,418.97,373.59,466.55z"/>
			<polygon class="st2" points="366.29,244.21 346.74,244.21 346.74,258.38 366.29,258.24 			"/>
			<polygon class="st2" points="87.87,465.71 87.9,444.37 66.57,444.34 66.75,465.69 			"/>
			<polygon class="st2" points="87.91,439.8 87.95,418.45 66.61,418.43 66.79,439.77 			"/>
			<polygon class="st2" points="388.15,337.57 378.88,337.57 378.88,358.55 388.15,358.35 			"/>
			<polygon class="st2" points="388.15,309.6 378.88,309.6 378.88,330.58 388.15,330.37 			"/>
			<polygon class="st2" points="366.29,264.37 346.74,264.37 346.74,278.54 366.29,278.4 			"/>
			<polygon class="st2" points="366.29,284.53 346.74,284.53 346.74,298.7 366.29,298.56 			"/>
			<polygon class="st2" points="294.87,473.75 287.03,473.75 287.03,484.4 294.87,484.29 			"/>
			<polygon class="st2" points="294.87,488.9 287.03,488.9 287.03,499.54 294.87,499.44 			"/>
			<polygon class="st2" points="294.87,504.04 287.03,504.04 287.03,514.69 294.87,514.58 			"/>
			<polygon class="st2" points="283.46,473.75 275.62,473.75 275.62,484.4 283.46,484.29 			"/>
			<polygon class="st2" points="283.46,488.9 275.62,488.9 275.62,499.54 283.46,499.44 			"/>
			<polygon class="st2" points="283.46,504.04 275.62,504.04 275.62,514.69 283.46,514.58 			"/>
			<polygon class="st2" points="195.62,275.89 176.07,275.89 176.07,298.72 195.62,298.5 			"/>
			<polygon class="st2" points="195.62,308.37 176.07,308.37 176.07,331.21 195.62,330.98 			"/>
			<polygon class="st2" points="195.62,340.86 176.07,340.86 176.07,363.7 195.62,363.47 			"/>
			<polygon class="st2" points="167.18,275.89 147.62,275.89 147.62,298.72 167.18,298.5 			"/>
			<polygon class="st2" points="167.18,308.37 147.62,308.37 147.62,331.21 167.18,330.98 			"/>
			<polygon class="st2" points="167.18,340.86 147.62,340.86 147.62,363.7 167.18,363.47 			"/>
			<rect x="296.97" y="203.9" class="st2" width="5.01" height="245.36"/>
			<rect x="307.63" y="203.9" class="st2" width="5.01" height="245.36"/>
			<rect x="318.3" y="203.9" class="st2" width="5.01" height="245.36"/>
			<polygon class="st2" points="269.98,226.08 269.98,238.09 257.85,238.23 257.85,226.08 			"/>
			<path class="st2" d="M310.87,146.88c-8.28,6.71-16.6,13.45-24.89,20.16v296.63h-7.11V207.36h-28.44v322.54h11h3.22v-63.36h68.23
				c0.96-100.8,2.88-302.39,2.88-302.39S319.15,152.64,310.87,146.88z M269.98,303.05l-12.12,0.42v-35.42h12.12V303.05z
				 M269.98,261.08l-12.12,0.42v-35.42h12.12V261.08z M301.98,449.27h-5.01V203.9h5.01V449.27z M312.65,449.27h-5.01V203.9h5.01
				V449.27z M323.31,449.27h-5.01V203.9h5.01V449.27z"/>
			<path class="st2" d="M250.42,437.75c-4.73,0-9.49,0-14.22,0c0,10.57,0,21.11,0,31.68c-5.94,0-11.84,0-17.78,0
				c0-70.07,0-140.16,0-210.23c-30.83,0-61.62,0-92.45,0c0,38.39,0,76.81,0,115.19c-9.49,0-18.95,0-28.44,0c0,11.52,0,23.04,0,34.56
				c-14.22,0-28.44,0-42.67,0c0,37.44,0,74.88,0,112.31c-10.67,0-21.33,0-32,0v16.22L15,538"/>
			<path class="st2" d="M385.54,498.23"/>
			<line class="st2" x1="125.98" y1="529.91" x2="125.98" y2="374.39"/>
			<line class="st2" x1="97.53" y1="529.91" x2="97.53" y2="408.95"/>
			<path class="st2" d="M232.64,532.79"/>
			<path class="st2" d="M127.27,532.79"/>
			<line class="st2" x1="218.42" y1="529.91" x2="218.42" y2="469.43"/>
			<polyline class="st2" points="250.42,529.91 218.42,529.91 125.98,529.91 97.53,529.91 			"/>
			<polyline class="st2" points="264.64,529.91 360.37,529.91 360.37,465.71 264.64,466.55 			"/>
			<polyline class="st2" points="1224,533.16 672.18,529.92 672.18,494.22 659.48,484.39 659.48,529.92 604.78,529.92 
				604.78,444.36 578.71,401.96 549.98,448.65 549.98,529.92 539.6,529.92 499.33,529.92 499.33,383.05 499.33,373.21 497.35,370 
							"/>
			<polyline class="st2" points="392.54,532.05 392.54,466.56 434.84,466.56 434.84,358.56 470.1,325.71 			"/>
			<line class="st2" x1="495.95" y1="532.79" x2="356.47" y2="532.04"/>
		</g>
		<polygon class="st2" points="425.18,361.55 425.18,288 413.34,288 414.3,370.82 414.3,426.48 425.18,426.48 		"/>
		<polyline class="st2" points="452.17,341.97 452.17,288 442.71,288 442.71,345.91 442.71,351.22 		"/>
		<polyline class="st2" points="469.09,326.59 469.09,293.47 469.09,288 469.09,268.33 469.09,267.69 403.31,267.69 397.41,267.69 
			397.41,287.28 397.41,466.55 		"/>
		<line class="st2" x1="373.59" y1="264.37" x2="403.08" y2="264.37"/>
		<line class="st2" x1="391.62" y1="294.49" x2="397.05" y2="294.49"/>
		<polygon class="st2" points="539.6,367.55 499.33,369.88 497.35,370 470.1,325.71 499.33,328.68 509.75,329.77 		"/>
		<line class="st2" x1="539.59" y1="367.56" x2="539.59" y2="529.91"/>
	</g>
	<line class="st2" x1="470.09" y1="267.69" x2="501.69" y2="275.89"/>
	<polyline class="st2" points="374.09,264.37 392.62,294.49 392.62,470.75 	"/>
</g>
<path class="st3" d="M886.37,352.97"/>
<path class="st3" d="M856.32,223.53"/>
</svg>
