<?xml version="1.0" encoding="utf-8"?>
<!-- Generator: Adobe Illustrator 25.4.1, SVG Export Plug-In . SVG Version: 6.00 Build 0)  -->
<svg version="1.1" id="Layer_1" xmlns="http://www.w3.org/2000/svg" xmlns:xlink="http://www.w3.org/1999/xlink" x="0px" y="0px"
	 viewBox="0 0 1920 560" style="enable-background:new 0 0 1920 560;" xml:space="preserve">
<style type="text/css">
	.st0{fill:#231F20;}
</style>
<path class="st0" d="M252.49,207.44h-40.13v-19.02h98.84v19.02h-39.74v134.97h-18.98V207.44z"/>
<path class="st0" d="M391.85,306.37h-54.96l-8.5,36.04h-18.78l35.19-154h39.14l35.19,154h-18.78L391.85,306.37z M340.85,287.35
	h47.05l-18.38-80.8h-10.28L340.85,287.35z"/>
<path class="st0" d="M457.68,207.44h-40.13v-19.02h98.84v19.02h-39.74v134.97h-18.98V207.44z"/>
<path class="st0" d="M546.04,332.67c-8.04-8.13-12.06-21-12.06-38.61V188.41h18.98v106.1c0,20.89,9.82,31.34,29.45,31.34
	c10.28,0,17.96-2.54,23.03-7.61c5.07-5.07,7.61-12.98,7.61-23.73v-106.1h18.78v105.65c0,17.61-4.05,30.48-12.16,38.61
	c-8.1,8.14-20.4,12.2-36.87,12.2C566.33,344.87,554.08,340.81,546.04,332.67z"/>
<path class="st0" d="M665.88,341.26l-7.15-1.17l1.56-17.28c17.85,2.26,31.45,3.27,40.81,3.04c17.79-0.43,26.46-9.82,26.01-28.17
	c-0.12-5.07-1.14-9.11-3.06-12.13c-1.92-3.01-4.91-5.4-8.97-7.17c-4.07-1.77-9.74-3.46-17.03-5.07
	c-10.74-2.57-19.12-5.54-25.13-8.91c-6.01-3.36-10.47-7.77-13.37-13.22c-2.9-5.45-4.46-12.65-4.68-21.6
	c-0.34-14.17,3.15-24.93,10.49-32.27c7.34-7.34,18.32-11.19,32.94-11.55c5.4-0.13,11.24,0.1,17.52,0.69
	c6.27,0.6,14.58,1.74,24.9,3.43l-1.16,17.49c-18.11-1.95-31.18-2.83-39.22-2.63c-18.05,0.44-26.89,8.12-26.53,23.03
	c0.13,5.52,1.26,9.82,3.38,12.9s5.44,5.58,9.97,7.48c4.53,1.91,11.37,3.94,20.51,6.11c9.55,2.46,17,5.26,22.35,8.41
	c5.35,3.16,9.3,7.31,11.87,12.48c2.56,5.16,3.95,11.99,4.16,20.5c0.38,15.82-3.12,27.84-10.5,36.08
	c-7.38,8.24-18.32,12.54-32.81,12.89C693.66,344.84,681.37,343.71,665.88,341.26z"/>
<g>
	<g>
		<polygon class="st0" points="1023.99,527.93 1017.17,527.99 1017.08,527.65 898.23,111.42 787.58,530.69 780.81,530.77 
			780.98,530.19 894.73,99.2 892.1,90.01 775.79,530.69 769.01,530.77 769.17,530.19 888.6,77.8 885.87,68.31 763.98,529.93 
			757.22,530.02 757.39,529.45 882.68,57.23 880.05,48.07 752.16,530.06 745.38,530.08 745.54,529.51 876.55,35.86 873.92,26.7 
			740.34,530.15 733.57,530.17 733.72,529.6 870.1,13.38 870.14,13.27 873.4,1 901.57,99.17 		"/>
	</g>
</g>
<path class="st0" d="M1041.67,370.14h51c15.02,0,26.26,3.95,33.7,11.86c7.45,7.91,11.17,19.92,11.17,36.04
	c0,22.68-7.84,37.6-23.52,44.77l24.12,61.33h-20.76l-21.94-56.85h-34.79v56.85h-18.98V370.14z M1092.87,448.7
	c8.3,0,14.59-2.57,18.88-7.72c4.28-5.15,6.42-12.65,6.42-22.49c0-9.7-2.14-17.09-6.42-22.16c-4.29-5.07-10.65-7.61-19.08-7.61
	h-32.03v59.99H1092.87z"/>
<path class="st0" d="M1181.66,389.17h-40.13v-19.02h98.84v19.02h-39.74v134.97h-18.98V389.17z"/>
<path class="st0" d="M1259.15,370.14h18.98v154h-18.98V370.14z"/>
<path class="st0" d="M1276.98,553.1l18.93-21.1c-12.91,0.15-27.12,0.32-42.48,0.49l-18.29,20.4
	C1250.03,552.95,1264,553.02,1276.98,553.1z M1215.71,532.93c-12.46,0.15-25.47,0.3-38.99,0.45l-17.28,19.15
	c13.29,0.06,26.15,0.13,38.54,0.19L1215.71,532.93z M1319.25,452.58c3.73,5.81,9.37,10.43,16.92,13.83
	c7.58,3.4,18.08,6.32,31.51,8.74c12.86,2.11,22.49,4.15,28.86,6.16c6.4,2,11.09,4.73,14.14,8.18c3.04,3.46,4.72,8.35,5.05,14.69
	c0.9,17.12-11.28,26.31-36.56,27.56c-1.37,0.06-18.53,0.31-47.96,0.65l-19.42,20.87c43.69,0.18,69.55,0.27,70.73,0.2
	c20.46-1.02,35.73-5.89,45.81-14.63c10.08-8.76,14.7-21.26,13.88-37.52c-0.54-10.27-2.9-18.49-7.1-24.63
	c-4.2-6.14-10.55-11.03-19.05-14.63c-8.5-3.62-20.3-6.67-35.4-9.19c-10.24-1.55-18.22-3.25-23.96-5.11
	c-5.74-1.86-9.98-4.48-12.74-7.88c-2.76-3.38-4.3-7.98-4.6-13.79c-1.09-21.07,10.81-32.22,35.71-33.45
	c13.08-0.65,32.14-0.06,57.19,1.78l1.75-19.91l-10.03-1.04c-21.74-2.19-38.97-2.97-51.69-2.33c-20.27,1-35.47,6.4-45.6,16.18
	c-10.1,9.76-14.7,23.73-13.76,41.88C1313.42,438.96,1315.52,446.75,1319.25,452.58z M73.11,244.89c3.73,5.81,9.37,10.43,16.92,13.83
	c7.58,3.4,18.08,6.32,31.51,8.74c12.86,2.11,22.49,4.15,28.86,6.16c6.4,2,11.09,4.73,14.14,8.18c3.04,3.46,4.72,8.35,5.05,14.69
	c0.9,17.12-11.28,26.31-36.56,27.56c-1.37,0.06-18.53,0.31-47.96,0.65l-19.42,20.87c43.69,0.18,69.55,0.27,70.73,0.2
	c20.46-1.02,35.73-5.89,45.81-14.63c10.08-8.76,14.7-21.26,13.88-37.52c-0.54-10.27-2.9-18.49-7.1-24.63
	c-4.2-6.14-10.55-11.03-19.05-14.63c-8.5-3.62-20.3-6.67-35.4-9.19c-10.24-1.55-18.22-3.25-23.96-5.11s-9.98-4.48-12.74-7.88
	c-2.76-3.38-4.3-7.98-4.6-13.79c-1.09-21.07,10.81-32.22,35.71-33.45c13.08-0.65,32.14-0.06,57.19,1.78l1.75-19.91l-10.03-1.04
	c-21.74-2.19-38.97-2.97-51.69-2.33c-20.27,1-35.47,6.4-45.6,16.18c-10.1,9.76-14.7,23.73-13.76,41.88
	C67.28,231.27,69.38,239.06,73.11,244.89z"/>
<line class="st0" x1="360.47" y1="207.8" x2="329.32" y2="341.96"/>
<line class="st0" x1="370.05" y1="207.8" x2="401.19" y2="341.96"/>
</svg>
