<?xml version="1.0" encoding="utf-8"?>
<!-- Generator: Adobe Illustrator 25.4.1, SVG Export Plug-In . SVG Version: 6.00 Build 0)  -->
<svg version="1.1" id="Layer_1" xmlns="http://www.w3.org/2000/svg" xmlns:xlink="http://www.w3.org/1999/xlink" x="0px" y="0px"
	 viewBox="0 0 1920 560" style="enable-background:new 0 0 1920 560;" xml:space="preserve">
<style type="text/css">
	.st0{stroke:#231F20;stroke-miterlimit:10;}
	.st1{opacity:0.67;}
	.st2{fill:none;stroke:#000000;stroke-width:0.5;stroke-miterlimit:10;}
	.st3{fill:none;stroke:#231F20;stroke-miterlimit:10;}
</style>
<path class="st0" d="M495.89,217.18h-38.72v-18.36h95.37v18.36H514.2v130.23h-18.31V217.18z"/>
<path class="st0" d="M609.32,215.22h-11.56l-28.63,132.19h-18.12l33.95-148.58h37.76l33.95,148.58h-18.12L609.32,215.22z"/>
<path class="st0" d="M693.87,217.18h-38.72v-18.36h95.37v18.36h-38.34v130.23h-18.31V217.18z"/>
<path class="st0" d="M779.12,338.01c-7.76-7.85-11.64-20.26-11.64-37.25V198.82h18.31v102.37c0,20.16,9.47,30.23,28.42,30.23
	c9.92,0,17.33-2.45,22.22-7.34c4.89-4.89,7.34-12.53,7.34-22.89V198.82h18.12v101.93c0,16.99-3.91,29.41-11.73,37.25
	c-7.82,7.85-19.68,11.77-35.57,11.77C798.7,349.78,786.88,345.86,779.12,338.01z"/>
<path class="st0" d="M894.75,346.29l-6.9-1.13l1.51-16.67c17.22,2.18,30.35,3.15,39.37,2.93c17.16-0.42,25.53-9.48,25.1-27.18
	c-0.12-4.89-1.1-8.79-2.95-11.7c-1.85-2.91-4.74-5.21-8.66-6.92c-3.92-1.71-9.4-3.34-16.43-4.9c-10.36-2.48-18.45-5.35-24.25-8.59
	c-5.8-3.24-10.1-7.5-12.9-12.76c-2.8-5.26-4.3-12.21-4.51-20.84c-0.33-13.67,3.04-24.05,10.12-31.14
	c7.08-7.08,17.67-10.8,31.78-11.14c5.21-0.13,10.84,0.1,16.9,0.67c6.05,0.58,14.06,1.68,24.02,3.31l-1.12,16.88
	c-17.47-1.88-30.08-2.73-37.84-2.54c-17.42,0.42-25.95,7.83-25.6,22.22c0.13,5.33,1.21,9.48,3.26,12.45
	c2.04,2.97,5.25,5.38,9.62,7.22c4.37,1.84,10.97,3.81,19.79,5.89c9.21,2.37,16.4,5.08,21.56,8.12c5.16,3.04,8.98,7.06,11.45,12.04
	c2.47,4.98,3.81,11.57,4.01,19.78c0.37,15.26-3.01,26.86-10.13,34.81c-7.12,7.95-17.67,12.09-31.65,12.43
	C921.55,349.75,909.7,348.67,894.75,346.29z"/>
<g>
	<g>
		<polygon points="1240.27,526.41 1233.69,526.46 1233.6,526.14 1118.94,124.53 1012.17,529.07 1005.64,529.14 1005.8,528.59 
			1115.56,112.75 1113.02,103.88 1000.8,529.07 994.25,529.14 994.41,528.59 1109.64,92.1 1107.01,82.94 989.41,528.34 
			982.88,528.43 983.04,527.87 1103.93,72.25 1101.39,63.42 978,528.46 971.45,528.48 971.61,527.93 1098.01,51.63 1095.48,42.8 
			966.59,528.55 960.06,528.57 960.21,528.02 1091.79,29.94 1091.83,29.84 1094.97,18 1122.15,112.71 		"/>
	</g>
</g>
<path class="st0" d="M1257.33,374.16h49.21c14.49,0,25.33,3.82,32.52,11.45c7.18,7.63,10.78,19.22,10.78,34.77
	c0,21.89-7.57,36.28-22.7,43.19l23.27,59.17h-20.03l-21.17-54.86h-33.57v54.86h-18.31V374.16z M1306.73,449.97
	c8.01,0,14.08-2.48,18.22-7.45c4.13-4.97,6.2-12.2,6.2-21.7c0-9.36-2.07-16.49-6.2-21.38c-4.14-4.89-10.27-7.34-18.41-7.34h-30.9
	v57.88H1306.73z"/>
<path class="st0" d="M1392.4,392.52h-38.72v-18.36h95.37v18.36h-38.34v130.23h-18.31V392.52z"/>
<path class="st0" d="M1467.17,374.16h18.31v148.58h-18.31V374.16z"/>
<path class="st0" d="M1523.95,442.86c3,4.77,7.54,8.56,13.61,11.35c6.09,2.79,14.54,5.19,25.34,7.17
	c10.35,1.73,18.09,3.41,23.22,5.05c5.14,1.64,8.92,3.88,11.37,6.71s3.8,6.85,4.06,12.05c0.72,14.05-9.07,21.58-29.41,22.61
	c-1.1,0.05-14.9,0.25-38.57,0.54l-15.62,17.12c35.14,0.15,55.94,0.22,56.89,0.17c16.46-0.84,28.74-4.83,36.85-12
	c8.11-7.18,11.83-17.44,11.16-30.78c-0.44-8.43-2.33-15.17-5.71-20.21c-3.38-5.04-8.49-9.05-15.32-12
	c-6.83-2.97-16.33-5.47-28.47-7.54c-8.24-1.28-14.66-2.67-19.27-4.2s-8.03-3.68-10.25-6.46c-2.22-2.77-3.45-6.55-3.7-11.31
	c-0.87-17.29,8.69-26.43,28.72-27.44c10.52-0.54,25.86-0.05,46,1.46l1.4-16.33l-8.07-0.86c-17.48-1.8-31.34-2.43-41.57-1.91
	c-16.31,0.82-28.53,5.25-36.68,13.28c-8.12,8.01-11.83,19.47-11.07,34.36C1519.26,431.68,1520.95,438.08,1523.95,442.86z
	 M329.23,267.01c3.34,5.08,8.39,9.13,15.15,12.1c6.78,2.97,16.19,5.53,28.21,7.64c11.52,1.84,20.14,3.63,25.85,5.39
	c5.73,1.75,9.93,4.13,12.66,7.16s4.23,7.3,4.52,12.85c0.8,14.98-10.1,23.02-32.74,24.11c-1.23,0.05-16.59,0.27-42.94,0.57
	l-17.39,18.26c39.12,0.16,62.28,0.23,63.34,0.18c18.32-0.9,32-5.16,41.02-12.8c9.02-7.66,13.17-18.6,12.43-32.83
	c-0.49-8.99-2.6-16.18-6.36-21.55c-3.76-5.37-9.45-9.65-17.05-12.8c-7.61-3.17-18.17-5.84-31.7-8.04
	c-9.17-1.36-16.31-2.85-21.45-4.48c-5.14-1.63-8.94-3.92-11.41-6.89c-2.47-2.95-3.85-6.98-4.12-12.06
	c-0.97-18.44,9.68-28.19,31.97-29.27c11.71-0.57,28.78-0.05,51.21,1.56l1.56-17.42l-8.98-0.91c-19.46-1.92-34.89-2.6-46.28-2.04
	c-18.15,0.88-31.76,5.6-40.83,14.16c-9.04,8.54-13.17,20.76-12.32,36.64C324.01,255.09,325.89,261.91,329.23,267.01z"/>
<g>
	<g class="st1">
		<line class="st2" x1="485.34" y1="447.59" x2="505.64" y2="450.4"/>
		<line class="st2" x1="528.2" y1="431.31" x2="523.68" y2="430.68"/>
		<polyline class="st2" points="663.55,487.98 663.55,484.77 663.55,483.68 		"/>
		<line class="st2" x1="663.55" y1="470.25" x2="663.55" y2="453.22"/>
		<line class="st2" x1="559.78" y1="416.59" x2="580.08" y2="419.41"/>
		<line class="st2" x1="562.73" y1="423.26" x2="562.21" y2="423.19"/>
		<path class="st2" d="M543.99,410.96l20.3,2.82c5.26,1.88,10.53,3.76,15.79,5.64"/>
		<line class="st2" x1="580.08" y1="425.67" x2="580.08" y2="419.41"/>
		<line class="st2" x1="602.63" y1="436.31" x2="602.63" y2="450.4"/>
		<path class="st2" d="M583.42,433.65c0-0.09,0-0.14,0-0.14l-21.38-10.34l18.05,2.51l2.26,0.31c6.77,3.45,13.53,6.88,20.3,10.33
			L583.42,433.65z"/>
		<g>
			<path class="st2" d="M583.78,515.21h-21.72l0.16-91.96v-0.24l0.52,0.25l20.69,10.25c0,0,0,0.05,0,0.14
				C583.42,434.82,583.6,499.69,583.78,515.21z"/>
			<polygon class="st2" points="579.15,442.7 566.74,442.7 566.74,447.32 579.15,447.27 			"/>
			<polygon class="st2" points="402.51,514.94 402.53,507.98 389,507.97 389.11,514.93 			"/>
			<polygon class="st2" points="402.54,506.49 402.56,499.52 389.03,499.52 389.14,506.48 			"/>
			<polygon class="st2" points="593.01,473.15 587.14,473.15 587.14,479.99 593.01,479.92 			"/>
			<polygon class="st2" points="593.01,464.02 587.14,464.02 587.14,470.87 593.01,470.8 			"/>
			<polygon class="st2" points="579.15,449.27 566.74,449.27 566.74,453.89 579.15,453.85 			"/>
			<polygon class="st2" points="579.15,455.85 566.74,455.85 566.74,460.47 579.15,460.42 			"/>
			<polygon class="st2" points="533.83,517.56 528.86,517.56 528.86,521.03 533.83,521 			"/>
			<polygon class="st2" points="533.83,522.5 528.86,522.5 528.86,525.97 533.83,525.94 			"/>
			<polygon class="st2" points="533.83,527.44 528.86,527.44 528.86,530.91 533.83,530.88 			"/>
			<polygon class="st2" points="526.6,517.56 521.63,517.56 521.63,521.03 526.6,521 			"/>
			<polygon class="st2" points="526.6,522.5 521.63,522.5 521.63,525.97 526.6,525.94 			"/>
			<polygon class="st2" points="526.6,527.44 521.63,527.44 521.63,530.91 526.6,530.88 			"/>
			<polygon class="st2" points="470.87,453.03 458.46,453.03 458.46,460.48 470.87,460.4 			"/>
			<polygon class="st2" points="470.87,463.62 458.46,463.62 458.46,471.07 470.87,471 			"/>
			<polygon class="st2" points="470.87,474.22 458.46,474.22 458.46,481.67 470.87,481.59 			"/>
			<polygon class="st2" points="452.83,453.03 440.42,453.03 440.42,460.48 452.83,460.4 			"/>
			<polygon class="st2" points="452.83,463.62 440.42,463.62 440.42,471.07 452.83,471 			"/>
			<polygon class="st2" points="452.83,474.22 440.42,474.22 440.42,481.67 452.83,481.59 			"/>
			<rect x="535.17" y="429.55" class="st2" width="3.18" height="80.02"/>
			<rect x="541.93" y="429.55" class="st2" width="3.18" height="80.02"/>
			<rect x="548.7" y="429.55" class="st2" width="3.18" height="80.02"/>
			<polygon class="st2" points="518.04,436.78 518.04,440.7 510.35,440.75 510.35,436.78 			"/>
			<path class="st2" d="M543.99,410.96c-5.26,2.19-10.53,4.39-15.79,6.57v96.74h-4.51v-83.59h-18.05v105.19h6.98h2.04v-20.66h43.29
				c0.61-32.87,1.83-98.62,1.83-98.62S549.24,412.83,543.99,410.96z M518.04,461.89l-7.69,0.14v-11.55h7.69V461.89z M518.04,448.2
				l-7.69,0.14v-11.55h7.69V448.2z M538.35,509.58h-3.18v-80.02h3.18V509.58z M545.11,509.58h-3.18v-80.02h3.18V509.58z
				 M551.88,509.58h-3.18v-80.02h3.18V509.58z"/>
			<path class="st2" d="M505.64,505.82c-3,0-6.02,0-9.02,0c0,3.45,0,6.88,0,10.33c-3.77,0-7.51,0-11.28,0c0-22.85,0-45.71,0-68.56
				c-19.56,0-39.09,0-58.65,0c0,12.52,0,25.05,0,37.57c-6.02,0-12.02,0-18.05,0c0,3.76,0,7.51,0,11.27c-9.02,0-18.05,0-27.07,0
				c0,12.21,0,24.42,0,36.63c-6.77,0-13.53,0-20.3,0v5.29l-342.89,0.9"/>
			<path class="st2" d="M591.36,525.54"/>
			<line class="st2" x1="426.69" y1="535.87" x2="426.69" y2="485.15"/>
			<line class="st2" x1="408.64" y1="535.87" x2="408.64" y2="496.43"/>
			<path class="st2" d="M494.36,536.81"/>
			<path class="st2" d="M427.51,536.81"/>
			<line class="st2" x1="485.34" y1="535.87" x2="485.34" y2="516.15"/>
			<polyline class="st2" points="505.64,535.87 485.34,535.87 426.69,535.87 408.64,535.87 			"/>
			<polyline class="st2" points="514.66,535.87 575.39,535.87 575.39,514.94 514.66,515.21 			"/>
			<polyline class="st2" points="1123.29,536.93 773.21,535.88 773.21,524.24 765.15,521.03 765.15,535.88 730.45,535.88 
				730.45,507.97 713.91,494.15 695.68,509.37 695.68,535.88 689.1,535.88 663.55,535.88 663.55,487.98 663.55,484.77 
				662.29,483.72 			"/>
			<polyline class="st2" points="595.8,536.57 595.8,515.21 622.64,515.21 622.64,479.99 645,469.28 			"/>
			<line class="st2" x1="661.4" y1="536.81" x2="572.92" y2="536.57"/>
		</g>
		<polygon class="st2" points="616.51,480.97 616.51,456.98 609,456.98 609.6,483.99 609.6,502.14 616.51,502.14 		"/>
		<polyline class="st2" points="633.63,474.58 633.63,456.98 627.63,456.98 627.63,475.87 627.63,477.6 		"/>
		<polyline class="st2" points="644.37,469.56 644.37,458.76 644.37,456.98 644.37,450.56 644.37,450.36 602.63,450.36 
			598.89,450.36 598.89,456.74 598.89,515.21 		"/>
		<line class="st2" x1="583.78" y1="449.27" x2="602.49" y2="449.27"/>
		<line class="st2" x1="595.22" y1="459.09" x2="598.66" y2="459.09"/>
		<polygon class="st2" points="689.1,482.92 663.55,483.68 662.29,483.72 645,469.28 663.55,470.25 670.16,470.6 		"/>
		<line class="st2" x1="689.09" y1="482.93" x2="689.09" y2="535.87"/>
	</g>
	<line class="st2" x1="644.37" y1="450.36" x2="664.41" y2="453.03"/>
	<polyline class="st2" points="583.46,449.27 595.22,459.09 595.22,516.58 	"/>
</g>
<path class="st3" d="M639.37,346.97"/>
<path class="st3" d="M609.32,217.53"/>
</svg>
