<?xml version="1.0" encoding="utf-8"?>
<!-- Generator: Adobe Illustrator 25.4.1, SVG Export Plug-In . SVG Version: 6.00 Build 0)  -->
<svg version="1.1" id="Layer_1" xmlns="http://www.w3.org/2000/svg" xmlns:xlink="http://www.w3.org/1999/xlink" x="0px" y="0px"
	 viewBox="0 0 1920 560" style="enable-background:new 0 0 1920 560;" xml:space="preserve">
<style type="text/css">
	.st0{display:none;fill:#001814;stroke:#000000;stroke-width:2;stroke-miterlimit:10;}
	.st1{fill:#FFFFFF;stroke:#FFFFFF;stroke-miterlimit:10;}
	.st2{fill:#FFFFFF;}
	.st3{display:none;}
	.st4{display:inline;opacity:0.67;}
	.st5{display:inline;}
	.st6{fill:#36A509;}
</style>
<path class="st0" d="M1723,554H79c-6.6,0-12-5.4-12-12V33c0-6.6,5.4-12,12-12h1644c6.6,0,12,5.4,12,12v509
	C1735,548.6,1729.6,554,1723,554z"/>
<path class="st1" d="M946.9,139.88h-45.86v-21.1H1014v21.1h-45.42v149.66H946.9V139.88z"/>
<path class="st1" d="M1218.13,139.88h-45.34v-21.1h111.68v21.1h-44.9v149.66h-21.44V139.88z"/>
<path class="st1" d="M1317.97,276.01c-9.09-9.02-13.63-23.29-13.63-42.81V116.05h21.45v117.64c0,23.17,11.09,34.75,33.28,34.75
	c11.62,0,20.29-2.81,26.02-8.44c5.73-5.62,8.6-14.4,8.6-26.31V116.05h21.22V233.2c0,19.53-4.58,33.8-13.73,42.81
	c-9.16,9.02-23.05,13.53-41.66,13.53C1340.9,289.54,1327.05,285.03,1317.97,276.01z"/>
<path class="st1" d="M1453.39,285.78l-8.08-1.3l1.76-19.16c20.17,2.5,35.54,3.62,46.11,3.37c20.1-0.48,29.9-10.89,29.39-31.24
	c-0.14-5.62-1.29-10.11-3.46-13.45c-2.17-3.34-5.55-5.99-10.14-7.95c-4.59-1.96-11.01-3.84-19.24-5.63
	c-12.14-2.85-21.6-6.15-28.4-9.88c-6.79-3.73-11.83-8.61-15.11-14.66c-3.28-6.04-5.04-14.03-5.28-23.96
	c-0.39-15.71,3.56-27.64,11.85-35.78s20.69-12.41,37.22-12.8c6.1-0.15,12.7,0.11,19.79,0.77c7.09,0.66,16.47,1.93,28.14,3.8
	l-1.31,19.4c-20.46-2.16-35.23-3.13-44.31-2.92c-20.4,0.49-30.39,9-29.98,25.54c0.15,6.12,1.42,10.89,3.82,14.31
	c2.39,3.42,6.15,6.18,11.27,8.3c5.11,2.11,12.84,4.37,23.18,6.77c10.79,2.72,19.21,5.83,25.25,9.33c6.04,3.5,10.51,8.11,13.41,13.83
	c2.9,5.73,4.46,13.3,4.7,22.73c0.43,17.54-3.52,30.87-11.86,40.01c-8.34,9.14-20.7,13.9-37.07,14.29
	C1484.77,289.75,1470.88,288.51,1453.39,285.78z"/>
<path class="st1" d="M1586,504.56l-8.29-1.3l1.81-19.16c20.7,2.5,36.47,3.62,47.32,3.37c20.63-0.48,30.68-10.89,30.17-31.24
	c-0.14-5.62-1.33-10.11-3.55-13.45c-2.23-3.34-5.69-5.99-10.41-7.95c-4.71-1.96-11.3-3.84-19.75-5.63
	c-12.46-2.85-22.17-6.15-29.15-9.88c-6.97-3.73-12.14-8.61-15.51-14.66c-3.36-6.04-5.17-14.03-5.42-23.96
	c-0.4-15.71,3.65-27.64,12.16-35.78c8.51-8.14,21.24-12.41,38.2-12.8c6.26-0.15,13.03,0.11,20.31,0.77
	c7.28,0.66,16.9,1.93,28.88,3.8l-1.34,19.4c-21-2.16-36.16-3.13-45.48-2.92c-20.93,0.49-31.19,9-30.77,25.54
	c0.16,6.12,1.46,10.89,3.92,14.31c2.46,3.42,6.31,6.18,11.56,8.3c5.25,2.11,13.18,4.37,23.79,6.77c11.08,2.72,19.72,5.83,25.92,9.33
	c6.2,3.5,10.79,8.11,13.76,13.83c2.97,5.73,4.58,13.3,4.82,22.73c0.44,17.54-3.61,30.87-12.17,40.01
	c-8.56,9.14-21.24,13.9-38.05,14.29C1618.21,508.53,1603.96,507.28,1586,504.56z"/>
<path class="st1" d="M787.53,285.78l-8.17-1.3l1.78-19.16c20.4,2.5,35.95,3.62,46.64,3.37c20.33-0.48,30.24-10.89,29.73-31.24
	c-0.14-5.62-1.31-10.11-3.5-13.45c-2.19-3.34-5.61-5.99-10.26-7.95c-4.65-1.96-11.13-3.84-19.46-5.63
	c-12.28-2.85-21.85-6.15-28.73-9.88c-6.87-3.73-11.97-8.61-15.28-14.66c-3.31-6.04-5.1-14.03-5.34-23.96
	c-0.39-15.71,3.6-27.64,11.99-35.78c8.39-8.14,20.93-12.41,37.65-12.8c6.17-0.15,12.84,0.11,20.02,0.77
	c7.17,0.66,16.66,1.93,28.46,3.8l-1.33,19.4c-20.7-2.16-35.64-3.13-44.82-2.92c-20.63,0.49-30.74,9-30.32,25.54
	c0.15,6.12,1.44,10.89,3.86,14.31c2.42,3.42,6.22,6.18,11.4,8.3c5.17,2.11,12.99,4.37,23.45,6.77c10.92,2.72,19.43,5.83,25.54,9.33
	c6.11,3.5,10.63,8.11,13.57,13.83c2.93,5.73,4.51,13.3,4.75,22.73c0.44,17.54-3.56,30.87-12,40.01c-8.44,9.14-20.94,13.9-37.5,14.29
	C819.27,289.75,805.23,288.51,787.53,285.78z"/>
<g>
	<g>
		<polygon class="st2" points="1240.27,529.41 1233.69,529.46 1233.6,529.14 1118.94,127.53 1012.17,532.07 1005.64,532.14 
			1005.8,531.59 1115.56,115.75 1113.02,106.88 1000.8,532.07 994.25,532.14 994.41,531.59 1109.64,95.1 1107.01,85.94 
			989.41,531.34 982.88,531.43 983.04,530.87 1103.93,75.25 1101.39,66.42 978,531.46 971.45,531.48 971.61,530.93 1098.01,54.63 
			1095.48,45.8 966.59,531.55 960.06,531.57 960.21,531.02 1091.79,32.94 1091.83,32.84 1094.97,21 1122.15,115.71 		"/>
	</g>
</g>
<path class="st1" d="M1269.84,337.56h59.15c17.42,0,30.45,4.39,39.08,13.15c8.63,8.77,12.95,22.09,12.95,39.96
	c0,25.15-9.09,41.7-27.28,49.64l27.97,68.01h-24.07l-25.45-63.04h-40.35v63.04h-22.01V337.56z M1329.21,424.67
	c9.63,0,16.92-2.85,21.89-8.56c4.96-5.71,7.45-14.02,7.45-24.94c0-10.76-2.48-18.95-7.45-24.57c-4.97-5.62-12.35-8.44-22.12-8.44
	h-37.14v66.51H1329.21z"/>
<path class="st1" d="M1433.18,358.65h-46.53v-21.1h114.62v21.1h-46.08v149.66h-22.01V358.65z"/>
<path class="st1" d="M1522.04,337.56h22.01v170.76h-22.01V337.56z"/>
<g class="st3">
	<g class="st4">
		<g>
			<g>
				<polygon class="st1" points="407.76,210.31 407.32,212.27 406.54,212.09 400,210.62 398.78,210.34 399.22,208.39 400,208.57 
					406.54,210.04 				"/>
			</g>
		</g>
		<g>
			<g>
				<polygon class="st1" points="628.53,270.62 628.53,270.67 628.52,270.65 				"/>
			</g>
		</g>
		<g>
			<g>
				<path class="st1" d="M468.35,165.59l-0.01,0.58l-0.01,1.24l-1.2-0.27l0.43-1.95l0.13,0.03c0.1,0.05,0.15,0.08,0.15,0.08
					L468.35,165.59z"/>
			</g>
		</g>
		<g>
			<g>
				<polygon class="st1" points="473.14,185.63 473.14,185.64 472.88,185.58 				"/>
			</g>
		</g>
		<g>
			<g>
				<path class="st1" d="M443.59,151.29l-6.37-1.43l0.44-1.95l0.15,0.03l0.02,0.01l0.11,0.07
					C439.59,148.98,441.53,150.09,443.59,151.29z"/>
			</g>
		</g>
		<g>
			<g>
				<polygon class="st1" points="549.5,226.64 549.5,227.89 547.5,227.44 547.5,226.64 				"/>
			</g>
		</g>
		<g>
			<g>
				<path class="st1" d="M547.5,226.64v0.8l2,0.45v-1.25H547.5z M512.58,217.13l0.53,0.42v-0.01L512.58,217.13z M468.13,184.51
					l-0.63-0.14l0.63,0.49l2.83,2.22v-1.93L468.13,184.51z"/>
			</g>
		</g>
		<g>
			<g>
				<g>
					<path class="st1" d="M472.88,185.58l0.26,0.06v-0.01L472.88,185.58z"/>
				</g>
			</g>
			<g>
				<g>
					<path class="st1" d="M479.53,245.21v16.18l25.5-0.15v-16.03H479.53z M503.03,259.25l-21.5,0.13v-12.17h21.5V259.25z"/>
				</g>
			</g>
			<g>
				<g>
					<path class="st1" d="M142.95,445.34l0.23,23.35l27.36,0.03l0.05-23.35L142.95,445.34z M168.54,466.71l-23.38-0.02l-0.2-19.35
						l23.62,0.03L168.54,466.71z"/>
				</g>
			</g>
			<g>
				<g>
					<path class="st1" d="M143,419.42l0.23,23.35l27.36,0.03l0.05-23.35L143,419.42z M168.6,440.79l-23.39-0.02l-0.19-19.34
						l23.62,0.02L168.6,440.79z"/>
				</g>
			</g>
			<g>
				<g>
					<path class="st1" d="M518.15,338.57v23l13.13-0.24v-22.76H518.15z M529.28,359.36l-9.13,0.18v-18.97h9.13V359.36z"/>
				</g>
			</g>
			<g>
				<g>
					<path class="st1" d="M518.15,310.6v23l13.13-0.25V310.6H518.15z M529.28,331.39l-9.13,0.17V312.6h9.13V331.39z"/>
				</g>
			</g>
			<g>
				<g>
					<path class="st1" d="M479.53,265.37v16.18l25.5-0.16v-16.02H479.53z M503.03,279.41l-21.5,0.12v-12.16h21.5V279.41z"/>
				</g>
			</g>
			<g>
				<g>
					<path class="st1" d="M479.53,285.53v16.18l25.5-0.16v-16.02H479.53z M503.03,299.57l-21.5,0.12v-12.16h21.5V299.57z"/>
				</g>
			</g>
			<g>
				<g>
					<path class="st1" d="M420.12,481v11.92l19.88-0.1V481H420.12z M438,490.83l-15.88,0.08V483H438V490.83z"/>
				</g>
			</g>
			<g>
				<g>
					<path class="st1" d="M420.12,494.74v11.07l19.88-0.1v-10.97H420.12z M438,503.72l-15.88,0.08v-7.06H438V503.72z"/>
				</g>
			</g>
			<g>
				<g>
					<path class="st1" d="M420.12,507.63v11.06l19.88-0.1v-10.96H420.12z M438,516.6l-15.88,0.08v-7.05H438V516.6z"/>
				</g>
			</g>
			<g>
				<g>
					<path class="st1" d="M394.1,481v11.92l19.89-0.1V481H394.1z M411.99,490.83l-15.89,0.08V483h15.89V490.83z"/>
				</g>
			</g>
			<g>
				<g>
					<path class="st1" d="M394.1,494.74v11.07l19.89-0.1v-10.97H394.1z M411.99,503.72l-15.89,0.08v-7.06h15.89V503.72z"/>
				</g>
			</g>
			<g>
				<g>
					<path class="st1" d="M394.1,507.63v11.06l19.89-0.1v-10.96H394.1z M411.99,516.6l-15.89,0.08v-7.05h15.89V516.6z"/>
				</g>
			</g>
			<g>
				<g>
					<path class="st1" d="M274.5,276.89v24.84l25.49-0.24v-24.6H274.5z M297.99,299.51l-21.49,0.2v-20.82h21.49V299.51z"/>
				</g>
			</g>
			<g>
				<g>
					<path class="st1" d="M274.5,309.38v24.84l25.49-0.25v-24.59H274.5z M297.99,331.99l-21.49,0.21v-20.82h21.49V331.99z"/>
				</g>
			</g>
			<g>
				<g>
					<path class="st1" d="M274.5,341.86v24.85l25.49-0.25v-24.6H274.5z M297.99,364.48l-21.49,0.21v-20.83h21.49V364.48z"/>
				</g>
			</g>
			<g>
				<g>
					<path class="st1" d="M240.33,276.89v24.84l25.49-0.24v-24.6H240.33z M263.82,299.51l-21.49,0.2v-20.82h21.49V299.51z"/>
				</g>
			</g>
			<g>
				<g>
					<path class="st1" d="M240.33,309.38v24.84l25.49-0.25v-24.59H240.33z M263.82,331.99l-21.49,0.21v-20.82h21.49V331.99z"/>
				</g>
			</g>
			<g>
				<g>
					<path class="st1" d="M240.33,341.86v24.85l25.49-0.25v-24.6H240.33z M263.82,364.48l-21.49,0.21v-20.83h21.49V364.48z"/>
				</g>
			</g>
			<g>
				<g>
					<path class="st1" d="M419.74,204.9v247.37h8.02V204.9H419.74z M425.76,450.27h-4.02V206.9h4.02V450.27z"/>
				</g>
			</g>
			<g>
				<g>
					<path class="st1" d="M445.37,204.9v247.37h8.02V204.9H445.37z M451.39,450.27h-4.02V206.9h4.02V450.27z"/>
				</g>
			</g>
			<g>
				<g>
					<path class="st1" d="M372.75,227.08v14.16l2-0.02l12.57-0.12l2-0.02v-14H372.75z M387.32,239.1l-12.57,0.12v-10.14h12.57V239.1
						z"/>
				</g>
			</g>
			<g>
				<g>
					<path class="st1" d="M372.75,227.08v37.45l16.57-0.48v-36.97H372.75z M387.32,262.11l-12.57,0.36v-33.39h12.57V262.11z
						 M372.75,269.05v37.45l16.57-0.48v-36.97H372.75z M387.32,304.08l-12.57,0.36v-33.39h12.57V304.08z M419.74,204.9v247.37h8.02
						V204.9H419.74z M425.76,450.27h-4.02V206.9h4.02V450.27z M445.37,204.9v247.37h8.02V204.9H445.37z M451.39,450.27h-4.02V206.9
						h4.02V450.27z M445.37,204.9v247.37h8.02V204.9H445.37z M451.39,450.27h-4.02V206.9h4.02V450.27z M419.74,204.9v247.37h8.02
						V204.9H419.74z M425.76,450.27h-4.02V206.9h4.02V450.27z M372.75,269.05v37.45l16.57-0.48v-36.97H372.75z M387.32,304.08
						l-12.57,0.36v-33.39h12.57V304.08z M372.75,227.08v37.45l16.57-0.48v-36.97H372.75z M387.32,262.11l-12.57,0.36v-33.39h12.57
						V262.11z M372.75,227.08v37.45l16.57-0.48v-36.97H372.75z M387.32,262.11l-12.57,0.36v-33.39h12.57V262.11z M372.75,269.05
						v37.45l16.57-0.48v-36.97H372.75z M387.32,304.08l-12.57,0.36v-33.39h12.57V304.08z M419.74,204.9v247.37h8.02V204.9H419.74z
						 M425.76,450.27h-4.02V206.9h4.02V450.27z M445.37,204.9v247.37h8.02V204.9H445.37z M451.39,450.27h-4.02V206.9h4.02V450.27z
						 M445.37,204.9v247.37h8.02V204.9H445.37z M451.39,450.27h-4.02V206.9h4.02V450.27z M419.74,204.9v247.37h8.02V204.9H419.74z
						 M425.76,450.27h-4.02V206.9h4.02V450.27z M372.75,269.05v37.45l16.57-0.48v-36.97H372.75z M387.32,304.08l-12.57,0.36v-33.39
						h12.57V304.08z M372.75,227.08v37.45l16.57-0.48v-36.97H372.75z M387.32,262.11l-12.57,0.36v-33.39h12.57V262.11z
						 M372.75,227.08v37.45l16.57-0.48v-36.97H372.75z M387.32,262.11l-12.57,0.36v-33.39h12.57V262.11z M372.75,269.05v37.45
						l16.57-0.48v-36.97H372.75z M387.32,304.08l-12.57,0.36v-33.39h12.57V304.08z M419.74,204.9v247.37h8.02V204.9H419.74z
						 M425.76,450.27h-4.02V206.9h4.02V450.27z M445.37,204.9v247.37h8.02V204.9H445.37z M451.39,450.27h-4.02V206.9h4.02V450.27z
						 M467.69,165.22l-0.13-0.03l-0.43,1.95l1.2,0.27C468.33,167.41,467.79,165.27,467.69,165.22z M467.5,184.37l0.63,0.49v-0.35
						L467.5,184.37z M445.37,204.9v247.37h8.02V204.9H445.37z M451.39,450.27h-4.02V206.9h4.02V450.27z M437.94,148.02l-0.11-0.07
						l-0.02-0.01l-0.15-0.03l-0.44,1.95l6.37,1.43C441.53,150.09,439.59,148.98,437.94,148.02z M419.74,204.9v247.37h8.02V204.9
						H419.74z M425.76,450.27h-4.02V206.9h4.02V450.27z M406.54,210.04v2.05l0.78,0.18l0.44-1.96L406.54,210.04z M399.22,208.39
						l-0.44,1.95l1.22,0.28v-2.05L399.22,208.39z M372.75,269.05v37.45l16.57-0.48v-36.97H372.75z M387.32,304.08l-12.57,0.36
						v-33.39h12.57V304.08z M372.75,227.08v37.45l16.57-0.48v-36.97H372.75z M387.32,262.11l-12.57,0.36v-33.39h12.57V262.11z
						 M381.91,530.91v2h1v-2H381.91z M363.83,530.91v2h1v-2H363.83z M372.75,227.08v37.45l16.57-0.48v-36.97H372.75z M387.32,262.11
						l-12.57,0.36v-33.39h12.57V262.11z M372.75,269.05v37.45l16.57-0.48v-36.97H372.75z M387.32,304.08l-12.57,0.36v-33.39h12.57
						V304.08z M419.74,204.9v247.37h8.02V204.9H419.74z M425.76,450.27h-4.02V206.9h4.02V450.27z M445.37,204.9v247.37h8.02V204.9
						H445.37z M451.39,450.27h-4.02V206.9h4.02V450.27z M445.37,204.9v247.37h8.02V204.9H445.37z M451.39,450.27h-4.02V206.9h4.02
						V450.27z M419.74,204.9v247.37h8.02V204.9H419.74z M425.76,450.27h-4.02V206.9h4.02V450.27z M372.75,269.05v37.45l16.57-0.48
						v-36.97H372.75z M387.32,304.08l-12.57,0.36v-33.39h12.57V304.08z M372.75,227.08v37.45l16.57-0.48v-36.97H372.75z
						 M387.32,262.11l-12.57,0.36v-33.39h12.57V262.11z M372.75,227.08v37.45l16.57-0.48v-36.97H372.75z M387.32,262.11l-12.57,0.36
						v-33.39h12.57V262.11z M372.75,269.05v37.45l16.57-0.48v-36.97H372.75z M387.32,304.08l-12.57,0.36v-33.39h12.57V304.08z
						 M419.74,204.9v247.37h8.02V204.9H419.74z M425.76,450.27h-4.02V206.9h4.02V450.27z M445.37,204.9v247.37h8.02V204.9H445.37z
						 M451.39,450.27h-4.02V206.9h4.02V450.27z M445.37,204.9v247.37h8.02V204.9H445.37z M451.39,450.27h-4.02V206.9h4.02V450.27z
						 M419.74,204.9v247.37h8.02V204.9H419.74z M425.76,450.27h-4.02V206.9h4.02V450.27z M372.75,269.05v37.45l16.57-0.48v-36.97
						H372.75z M387.32,304.08l-12.57,0.36v-33.39h12.57V304.08z M372.75,227.08v37.45l16.57-0.48v-36.97H372.75z M387.32,262.11
						l-12.57,0.36v-33.39h12.57V262.11z"/>
				</g>
			</g>
			<g>
				<g>
					<g>
						<path class="st1" d="M527.15,500.23"/>
					</g>
				</g>
			</g>
			<g>
				<g>
					<g>
						<path class="st1" d="M343.47,534.79"/>
					</g>
				</g>
			</g>
			<g>
				<g>
					<g>
						<path class="st1" d="M216.87,534.79"/>
					</g>
				</g>
			</g>
			<g>
				<g>
					<rect x="325.38" y="530.91" class="st1" width="2" height="1"/>
				</g>
			</g>
			<g>
				<g>
					<rect x="325.38" y="530.91" class="st1" width="2" height="1"/>
					<rect x="363.83" y="530.91" class="st1" width="1" height="2"/>
				</g>
			</g>
			<g>
				<g>
					<rect x="381.91" y="530.91" class="st1" width="1" height="2"/>
					<rect x="497" y="531" class="st1" width="0.91" height="1.91"/>
				</g>
			</g>
			<g>
				<g>
					<rect x="662.85" y="531" class="st1" width="1.15" height="1.92"/>
					<rect x="711.22" y="530.92" class="st1" width="2" height="0.99"/>
				</g>
			</g>
			<g>
				<g>
					<line class="st1" x1="536.56" y1="531" x2="534.56" y2="531"/>
					<rect x="540.41" y="467.56" class="st1" width="2" height="0.99"/>
				</g>
			</g>
			<g>
				<g>
					<rect x="497" y="531" class="st1" width="167" height="2"/>
				</g>
			</g>
		</g>
		<g>
			<g>
				<path class="st1" d="M559.54,289l1.16,83.82v56.66h15.07V289H559.54z M573.77,427.48H562.7v-54.67L561.56,291h12.21V427.48z"/>
			</g>
		</g>
		<g>
			<g>
				<rect x="540.41" y="467.56" class="st1" width="2" height="0.99"/>
				<polygon class="st1" points="628.53,270.62 628.53,270.67 628.52,270.67 628.52,270.65 				"/>
			</g>
		</g>
		<g>
			<g>
				<path class="st1" d="M775.54,532.42l-64.32-0.5v0.99h-2v-0.99h-46.37V373.84l46.37-2.24v160.32h2V371.5l-36.12-39.42l-0.26-0.28
					l-11.99-1.02v-51.26l-36.32-9.73l-0.47-0.1H547.5v-40.8l-2-0.45v37.93h-34.31c-0.04-23.65-0.07-40.98-0.08-45.66l34.39,7.73
					v-0.8h2v1.25l-0.36-2.02c-6.41-5.29-12.81-10.56-19.22-15.84c-6.41-5.28-12.82-10.56-19.22-15.84l-0.19-0.15l-3.72-0.84v-18.4
					l-0.5-0.86l-30.03-17.36l-38.86-8.87l-30.86,20.8v41.53v2.05v252.58H398l-0.78-256.28l-35.39-0.03v60.23l-36.45-8.39H212.32
					v115.19h-34.17v34.56h-51.26v112.32H88.45v16.27l-8.5,0.46l0.1,2l10.4-0.56v-16.17h38.44V412.95h49.26v119.96l1,1h182.68v-2
					h-36.45v1h-2v-1H214.32V263.2h109.06v268.71h2v-58.48h21.36v-31.68h15.09v90.16h1v2h17.08v-2h1v-61.36h81.96h5.79h25.25v61.36
					h-113v2H495V532h0.91v-61.45h15.89c0,0-0.48-138.67-0.6-201.76l21.26,28.75l0.1,171.02V532h2v-61.44h50.82V362.05l41.16-31.92
					l32.45,43.9L660.85,532H662v1.92l117.5,2.58l-0.5-4L775.54,532.42z M214.32,530.91h-32.17V377.39h32.17V530.91z M363.83,438.75
					h-17.09v31.68h-19.36V262.44l36.45,8.19V438.75z M462.91,466.96l-81,0.59h-1v63.36h-15.08V210.36H398v256.31h10.54v-297.1
					l28.94-19.51c9.15,5.29,25.76,14.88,28.86,16.68L462.91,466.96z M470.96,187.08l-0.3,279.83l-5.76,0.04l3.23-282.09v-0.35
					l0.2-17.1l-1.2-0.27l0.43-1.95l0.13,0.03c-1.5-0.87-14.32-8.28-24.08-13.92l31.91,7.17l24.1,13.92l-31.93-7.17
					c0.1,0.05,0.15,0.08,0.15,0.08l0.51,0.29l-0.01,0.58l-0.01,1.24l36.46,8.19v17.15l-31.4-7.06l-2.43-0.54V187.08z M473.14,185.63
					v0.01l-0.26-0.06L473.14,185.63z M497.91,467.55v-0.84l-25.25,0.18l0.3-278.25l38.15,29.88v0.74
					c0.02,13.8,0.35,200.63,0.68,248.29H497.91z M476.94,188.54l28.63,6.45l4.04,0.9c6.34,5.23,12.69,10.46,19.04,15.68
					c5.33,4.39,10.66,8.78,15.98,13.18l-31.52-7.09v-0.11l-0.53-0.42L476.94,188.54z M536.16,295.49l-20.78-28.12h32.12v1.32h-7.09
					v26.8H536.16z M606.2,343.92l-9.37,7.27V291h9.37V343.92z M626.53,328.15l-18.33,14.22V289h-13.37v63.74l-9.45,7.33v107.49
					h-42.97v0.99h-2v-0.99h-3.75V297.49h3.75v170.07h2V270.69h84.12V328.15z M628.53,326.69v-56.02h-0.01v-0.02l0.01-0.03v0.05
					l34.32,7.82v51.12L628.53,326.69z M663.8,370.88l-1.84,0.09l-31.11-42.07l32.91,2.78l12.15,1.05l34.1,35.93L663.8,370.88z"/>
			</g>
		</g>
		<g>
			<g>
				<rect x="711.22" y="530.92" class="st1" width="2" height="0.99"/>
			</g>
		</g>
	</g>
	<g class="st5">
		<g>
			<polygon class="st1" points="630.53,270.62 630.53,270.67 630.52,270.67 			"/>
		</g>
	</g>
</g>
<path class="st1" d="M559.65,306.31"/>
<path class="st1" d="M525.12,157.54"/>
<path class="st6" d="M1304.73,276.08c-10.24,4.97-25.07,11.99-43.16,19.93c-30.19,13.25-63.46,27.85-93.27,36.55
	c-65.99,19.26-81.57-0.17-159.11,17.44c-13.32,3.02-39.96,9.21-71.38,22.99c-122.6,53.76-163.5,155.35-162.51,158.11
	c0,0.01,0.01,0.01,0.01,0.02c1.45,1.52,74.54-96.34,167.02-138.81c106.05-48.71,168.54,7.13,278.24-50.64
	C1260.44,320.66,1288.01,294.42,1304.73,276.08z"/>
<path class="st1" d="M1215.5,307.5"/>
<path class="st1" d="M1220.5,284.5c-1,2.33-2,4.67-3,7"/>
</svg>
