<?xml version="1.0" encoding="utf-8"?>
<!-- Generator: Adobe Illustrator 25.4.1, SVG Export Plug-In . SVG Version: 6.00 Build 0)  -->
<svg version="1.1" id="Layer_1" xmlns="http://www.w3.org/2000/svg" xmlns:xlink="http://www.w3.org/1999/xlink" x="0px" y="0px"
	 viewBox="0 0 841.89 595.28" style="enable-background:new 0 0 841.89 595.28;" xml:space="preserve">
<style type="text/css">
	.st0{fill:#BCBEC0;stroke:#000000;stroke-width:0.5;stroke-miterlimit:10;}
	.st1{fill:#00405A;stroke:#000000;stroke-miterlimit:10;}
	.st2{stroke:#000000;stroke-miterlimit:10;}
	.st3{opacity:0.67;}
	.st4{fill:none;stroke:#000000;stroke-width:0.5;stroke-miterlimit:10;}
	.st5{fill:none;stroke:#000000;stroke-miterlimit:10;}
</style>
<ellipse class="st0" cx="614.6" cy="404.41" rx="171.5" ry="9.5"/>
<path class="st1" d="M261.68,268.03h-16.75v-7.94h41.26v7.94H269.6v56.34h-7.92V268.03z"/>
<path class="st1" d="M310.75,267.18h-5l-12.39,57.19h-7.84l14.69-64.28h16.34l14.69,64.28h-7.84L310.75,267.18z"/>
<path class="st1" d="M347.32,268.03h-16.75v-7.94h41.26v7.94h-16.59v56.34h-7.92V268.03z"/>
<path class="st1" d="M384.21,320.3c-3.36-3.39-5.03-8.77-5.03-16.12v-44.1h7.92v44.29c0,8.72,4.1,13.08,12.29,13.08
	c4.29,0,7.5-1.06,9.61-3.18c2.12-2.12,3.18-5.42,3.18-9.9v-44.29h7.84v44.1c0,7.35-1.69,12.72-5.07,16.12
	c-3.38,3.4-8.51,5.09-15.39,5.09C392.68,325.39,387.56,323.7,384.21,320.3z"/>
<path class="st1" d="M434.23,323.89l-2.98-0.49l0.65-7.21c7.45,0.94,13.13,1.36,17.03,1.27c7.42-0.18,11.04-4.1,10.86-11.76
	c-0.05-2.12-0.48-3.8-1.28-5.06c-0.8-1.26-2.05-2.25-3.75-2.99c-1.7-0.74-4.07-1.44-7.11-2.12c-4.48-1.07-7.98-2.31-10.49-3.72
	c-2.51-1.4-4.37-3.24-5.58-5.52c-1.21-2.27-1.86-5.28-1.95-9.02c-0.14-5.92,1.32-10.41,4.38-13.47c3.06-3.06,7.64-4.67,13.75-4.82
	c2.25-0.05,4.69,0.04,7.31,0.29c2.62,0.25,6.08,0.73,10.39,1.43l-0.48,7.3c-7.56-0.81-13.01-1.18-16.37-1.1
	c-7.53,0.18-11.23,3.39-11.07,9.61c0.06,2.3,0.53,4.1,1.41,5.39s2.27,2.33,4.16,3.12c1.89,0.8,4.74,1.65,8.56,2.55
	c3.99,1.03,7.1,2.2,9.33,3.51c2.23,1.32,3.88,3.05,4.95,5.21c1.07,2.16,1.65,5.01,1.73,8.56c0.16,6.6-1.3,11.62-4.38,15.06
	c-3.08,3.44-7.65,5.23-13.69,5.38C445.82,325.38,440.69,324.91,434.23,323.89z"/>
<g>
	<g>
		<polygon points="583.71,401.8 580.86,401.83 580.82,401.69 531.21,227.95 485.02,402.96 482.2,402.99 482.27,402.75 
			529.75,222.85 528.65,219.01 480.1,402.96 477.27,402.99 477.34,402.75 527.19,213.92 526.05,209.96 475.18,402.64 472.35,402.68 
			472.42,402.44 524.72,205.33 523.62,201.51 470.24,402.69 467.41,402.7 467.48,402.46 522.16,196.41 521.06,192.59 465.31,402.73 
			462.48,402.74 462.55,402.5 519.47,187.03 519.49,186.98 520.85,181.86 532.61,222.84 		"/>
	</g>
</g>
<path class="st2" d="M591.08,335.94h21.29c6.27,0,10.96,1.65,14.07,4.95c3.11,3.3,4.66,8.32,4.66,15.04c0,9.47-3.27,15.7-9.82,18.69
	l10.07,25.6h-8.66l-9.16-23.73h-14.52v23.73h-7.92V335.94z M612.46,368.73c3.47,0,6.09-1.07,7.88-3.22
	c1.79-2.15,2.68-5.28,2.68-9.39c0-4.05-0.89-7.13-2.68-9.25c-1.79-2.12-4.44-3.18-7.96-3.18h-13.37v25.04H612.46z"/>
<path class="st2" d="M649.52,343.88h-16.75v-7.94h41.26v7.94h-16.59v56.34h-7.92V343.88z"/>
<path class="st2" d="M681.86,335.94h7.92v64.28h-7.92V335.94z"/>
<path class="st2" d="M706.43,365.66c1.3,2.06,3.26,3.7,5.89,4.91c2.64,1.21,6.29,2.24,10.96,3.1c4.48,0.75,7.83,1.47,10.04,2.19
	c2.23,0.71,3.86,1.68,4.92,2.9c1.06,1.23,1.64,2.96,1.76,5.21c0.31,6.08-3.93,9.34-12.72,9.78c-0.48,0.02-6.45,0.11-16.69,0.23
	l-6.76,7.41c15.2,0.07,24.2,0.09,24.61,0.07c7.12-0.36,12.43-2.09,15.94-5.19c3.51-3.11,5.12-7.54,4.83-13.32
	c-0.19-3.64-1.01-6.56-2.47-8.74c-1.46-2.18-3.67-3.91-6.63-5.19c-2.96-1.29-7.06-2.37-12.32-3.26c-3.56-0.55-6.34-1.15-8.34-1.82
	c-2-0.66-3.47-1.59-4.43-2.8c-0.96-1.2-1.49-2.83-1.6-4.89c-0.38-7.48,3.76-11.44,12.43-11.87c4.55-0.23,11.19-0.02,19.9,0.63
	l0.61-7.06l-3.49-0.37c-7.56-0.78-13.56-1.05-17.99-0.83c-7.05,0.36-12.34,2.27-15.87,5.74c-3.51,3.46-5.12,8.42-4.79,14.86
	C704.4,360.82,705.13,363.59,706.43,365.66z M189.58,289.59c1.44,2.2,3.63,3.95,6.56,5.23c2.93,1.29,7,2.39,12.21,3.31
	c4.98,0.8,8.71,1.57,11.18,2.33c2.48,0.76,4.3,1.79,5.48,3.1c1.18,1.31,1.83,3.16,1.96,5.56c0.35,6.48-4.37,9.96-14.16,10.43
	c-0.53,0.02-7.18,0.12-18.58,0.25l-7.52,7.9c16.92,0.07,26.94,0.1,27.4,0.08c7.93-0.39,13.84-2.23,17.75-5.54
	c3.9-3.31,5.7-8.05,5.38-14.2c-0.21-3.89-1.12-7-2.75-9.32c-1.63-2.32-4.09-4.17-7.38-5.54c-3.29-1.37-7.86-2.52-13.71-3.48
	c-3.97-0.59-7.06-1.23-9.28-1.94c-2.22-0.7-3.87-1.7-4.94-2.98c-1.07-1.28-1.66-3.02-1.78-5.22c-0.42-7.98,4.19-12.2,13.83-12.66
	c5.06-0.25,12.45-0.02,22.15,0.67l0.68-7.53l-3.89-0.39c-8.42-0.83-15.09-1.12-20.02-0.88c-7.85,0.38-13.74,2.42-17.66,6.13
	c-3.91,3.69-5.7,8.98-5.33,15.85C187.32,284.43,188.13,287.38,189.58,289.59z"/>
<g>
	<g class="st3">
		<line class="st4" x1="257.11" y1="373.76" x2="265.89" y2="374.98"/>
		<line class="st4" x1="275.65" y1="366.72" x2="273.7" y2="366.45"/>
		<polyline class="st4" points="334.21,391.24 334.21,389.85 334.21,389.38 		"/>
		<line class="st4" x1="334.21" y1="383.57" x2="334.21" y2="376.2"/>
		<line class="st4" x1="289.31" y1="360.35" x2="298.1" y2="361.57"/>
		<line class="st4" x1="290.59" y1="363.24" x2="290.37" y2="363.21"/>
		<path class="st4" d="M282.48,357.91l8.78,1.22c2.28,0.81,4.55,1.63,6.83,2.44"/>
		<line class="st4" x1="298.1" y1="364.28" x2="298.1" y2="361.57"/>
		<line class="st4" x1="307.86" y1="368.89" x2="307.86" y2="374.98"/>
		<path class="st4" d="M299.54,367.73c0-0.04,0-0.06,0-0.06l-9.25-4.47l7.81,1.08l0.98,0.13c2.93,1.49,5.86,2.98,8.78,4.47
			L299.54,367.73z"/>
		<g>
			<path class="st4" d="M299.7,403.02h-9.4l0.07-39.78v-0.11l0.22,0.11l8.95,4.43c0,0,0,0.02,0,0.06
				C299.54,368.24,299.62,396.3,299.7,403.02z"/>
			<polygon class="st4" points="297.69,371.65 292.33,371.65 292.33,373.65 297.69,373.63 			"/>
			<polygon class="st4" points="221.28,402.9 221.29,399.89 215.43,399.88 215.48,402.9 			"/>
			<polygon class="st4" points="221.29,399.24 221.3,396.23 215.45,396.23 215.49,399.24 			"/>
			<polygon class="st4" points="303.69,384.82 301.15,384.82 301.15,387.78 303.69,387.75 			"/>
			<polygon class="st4" points="303.69,380.87 301.15,380.87 301.15,383.83 303.69,383.8 			"/>
			<polygon class="st4" points="297.69,374.49 292.33,374.49 292.33,376.49 297.69,376.47 			"/>
			<polygon class="st4" points="297.69,377.34 292.33,377.34 292.33,379.33 297.69,379.31 			"/>
			<polygon class="st4" points="278.09,404.03 275.94,404.03 275.94,405.53 278.09,405.52 			"/>
			<polygon class="st4" points="278.09,406.17 275.94,406.17 275.94,407.67 278.09,407.66 			"/>
			<polygon class="st4" points="278.09,408.31 275.94,408.31 275.94,409.81 278.09,409.79 			"/>
			<polygon class="st4" points="274.96,404.03 272.81,404.03 272.81,405.53 274.96,405.52 			"/>
			<polygon class="st4" points="274.96,406.17 272.81,406.17 272.81,407.67 274.96,407.66 			"/>
			<polygon class="st4" points="274.96,408.31 272.81,408.31 272.81,409.81 274.96,409.79 			"/>
			<polygon class="st4" points="250.85,376.12 245.49,376.12 245.49,379.34 250.85,379.31 			"/>
			<polygon class="st4" points="250.85,380.7 245.49,380.7 245.49,383.92 250.85,383.89 			"/>
			<polygon class="st4" points="250.85,385.28 245.49,385.28 245.49,388.5 250.85,388.47 			"/>
			<polygon class="st4" points="243.05,376.12 237.68,376.12 237.68,379.34 243.05,379.31 			"/>
			<polygon class="st4" points="243.05,380.7 237.68,380.7 237.68,383.92 243.05,383.89 			"/>
			<polygon class="st4" points="243.05,385.28 237.68,385.28 237.68,388.5 243.05,388.47 			"/>
			<rect x="278.67" y="365.96" class="st4" width="1.38" height="34.62"/>
			<rect x="281.6" y="365.96" class="st4" width="1.38" height="34.62"/>
			<rect x="284.52" y="365.96" class="st4" width="1.38" height="34.62"/>
			<polygon class="st4" points="271.26,369.09 271.26,370.78 267.93,370.8 267.93,369.09 			"/>
			<path class="st4" d="M282.48,357.91c-2.27,0.95-4.56,1.9-6.83,2.84v41.85h-1.95v-36.16h-7.81v45.51h3.02h0.88v-8.94h18.73
				c0.26-14.22,0.79-42.66,0.79-42.66S284.76,358.73,282.48,357.91z M271.26,379.95l-3.33,0.06v-5h3.33V379.95z M271.26,374.03
				l-3.33,0.06v-5h3.33V374.03z M280.04,400.58h-1.38v-34.62h1.38V400.58z M282.97,400.58h-1.38v-34.62h1.38V400.58z M285.9,400.58
				h-1.38v-34.62h1.38V400.58z"/>
			<path class="st4" d="M265.89,398.95c-1.3,0-2.61,0-3.9,0c0,1.49,0,2.98,0,4.47c-1.63,0-3.25,0-4.88,0c0-9.89,0-19.78,0-29.66
				c-8.46,0-16.91,0-25.37,0c0,5.42,0,10.84,0,16.25c-2.61,0-5.2,0-7.81,0c0,1.63,0,3.25,0,4.88c-3.9,0-7.81,0-11.71,0
				c0,5.28,0,10.56,0,15.85c-2.93,0-5.86,0-8.78,0v2.29L55.1,413.41"/>
			<path class="st4" d="M302.98,407.49"/>
			<line class="st4" x1="231.74" y1="411.96" x2="231.74" y2="390.01"/>
			<line class="st4" x1="223.93" y1="411.96" x2="223.93" y2="394.89"/>
			<path class="st4" d="M261.01,412.36"/>
			<path class="st4" d="M232.09,412.36"/>
			<line class="st4" x1="257.11" y1="411.96" x2="257.11" y2="403.42"/>
			<polyline class="st4" points="265.89,411.96 257.11,411.96 231.74,411.96 223.93,411.96 			"/>
			<polyline class="st4" points="269.8,411.96 296.07,411.96 296.07,402.9 269.8,403.02 			"/>
			<polyline class="st4" points="533.1,412.41 381.65,411.96 381.65,406.92 378.16,405.53 378.16,411.96 363.15,411.96 
				363.15,399.89 355.99,393.9 348.11,400.49 348.11,411.96 345.26,411.96 334.21,411.96 334.21,391.24 334.21,389.85 
				333.66,389.39 			"/>
			<polyline class="st4" points="304.9,412.26 304.9,403.02 316.51,403.02 316.51,387.78 326.18,383.15 			"/>
			<line class="st4" x1="333.28" y1="412.36" x2="295" y2="412.26"/>
		</g>
		<polygon class="st4" points="313.86,388.2 313.86,377.82 310.61,377.82 310.87,389.51 310.87,397.36 313.86,397.36 		"/>
		<polyline class="st4" points="321.26,385.44 321.26,377.82 318.67,377.82 318.67,386 318.67,386.75 		"/>
		<polyline class="st4" points="325.91,383.27 325.91,378.6 325.91,377.82 325.91,375.05 325.91,374.96 307.86,374.96 
			306.24,374.96 306.24,377.72 306.24,403.02 		"/>
		<line class="st4" x1="299.7" y1="374.49" x2="307.79" y2="374.49"/>
		<line class="st4" x1="304.65" y1="378.74" x2="306.14" y2="378.74"/>
		<polygon class="st4" points="345.26,389.05 334.21,389.38 333.66,389.39 326.18,383.15 334.21,383.57 337.07,383.72 		"/>
		<line class="st4" x1="345.26" y1="389.05" x2="345.26" y2="411.96"/>
	</g>
	<line class="st4" x1="325.91" y1="374.96" x2="334.58" y2="376.12"/>
	<polyline class="st4" points="299.56,374.49 304.65,378.74 304.65,403.61 	"/>
</g>
<path class="st5" d="M323.75,324.18"/>
<path class="st5" d="M310.75,268.18"/>
</svg>
