<?xml version="1.0" encoding="utf-8"?>
<!-- Generator: Adobe Illustrator 25.4.1, SVG Export Plug-In . SVG Version: 6.00 Build 0)  -->
<svg version="1.1" id="Layer_1" xmlns="http://www.w3.org/2000/svg" xmlns:xlink="http://www.w3.org/1999/xlink" x="0px" y="0px"
	 viewBox="0 0 841.89 595.28" style="enable-background:new 0 0 841.89 595.28;" xml:space="preserve">
<style type="text/css">
	.st0{opacity:0.67;}
	.st1{fill:none;stroke:#000000;stroke-width:0.5;stroke-miterlimit:10;}
</style>
<g class="st0">
	<line class="st1" x1="346.53" y1="282.04" x2="356.55" y2="283.7"/>
	<line class="st1" x1="367.68" y1="272.42" x2="365.46" y2="272.05"/>
	<polyline class="st1" points="434.48,305.9 434.48,304 434.48,303.36 	"/>
	<line class="st1" x1="434.48" y1="295.42" x2="434.48" y2="285.37"/>
	<line class="st1" x1="383.27" y1="263.73" x2="393.29" y2="265.39"/>
	<line class="st1" x1="384.73" y1="267.67" x2="384.47" y2="267.63"/>
	<path class="st1" d="M375.48,260.4l10.02,1.66c2.6,1.11,5.19,2.22,7.79,3.33"/>
	<line class="st1" x1="393.29" y1="269.09" x2="393.29" y2="265.39"/>
	<line class="st1" x1="404.42" y1="275.38" x2="404.42" y2="283.7"/>
	<path class="st1" d="M394.94,273.8c0-0.06,0-0.08,0-0.08l-10.55-6.11l8.91,1.48l1.11,0.18c3.34,2.04,6.68,4.07,10.02,6.1
		L394.94,273.8z"/>
	<g>
		<path class="st1" d="M395.11,321.99h-10.72l0.08-54.32v-0.14l0.26,0.15l10.21,6.05c0,0,0,0.03,0,0.08
			C394.94,274.5,395.02,312.82,395.11,321.99z"/>
		<polygon class="st1" points="392.83,279.15 386.71,279.15 386.71,281.88 392.83,281.85 		"/>
		<polygon class="st1" points="305.66,321.83 305.67,317.71 298.99,317.71 299.05,321.82 		"/>
		<polygon class="st1" points="305.67,316.83 305.69,312.72 299.01,312.71 299.06,316.83 		"/>
		<polygon class="st1" points="399.67,297.14 396.77,297.14 396.77,301.18 399.67,301.14 		"/>
		<polygon class="st1" points="399.67,291.75 396.77,291.75 396.77,295.79 399.67,295.75 		"/>
		<polygon class="st1" points="392.83,283.03 386.71,283.03 386.71,285.76 392.83,285.74 		"/>
		<polygon class="st1" points="392.83,286.92 386.71,286.92 386.71,289.65 392.83,289.62 		"/>
		<polygon class="st1" points="370.47,323.37 368.01,323.37 368.01,325.42 370.47,325.4 		"/>
		<polygon class="st1" points="370.47,326.29 368.01,326.29 368.01,328.34 370.47,328.32 		"/>
		<polygon class="st1" points="370.47,329.21 368.01,329.21 368.01,331.26 370.47,331.24 		"/>
		<polygon class="st1" points="366.9,323.37 364.44,323.37 364.44,325.42 366.9,325.4 		"/>
		<polygon class="st1" points="366.9,326.29 364.44,326.29 364.44,328.34 366.9,328.32 		"/>
		<polygon class="st1" points="366.9,329.21 364.44,329.21 364.44,331.26 366.9,331.24 		"/>
		<polygon class="st1" points="339.4,285.25 333.27,285.25 333.27,289.65 339.4,289.61 		"/>
		<polygon class="st1" points="339.4,291.51 333.27,291.51 333.27,295.91 339.4,295.87 		"/>
		<polygon class="st1" points="339.4,297.77 333.27,297.77 333.27,302.17 339.4,302.13 		"/>
		<polygon class="st1" points="330.49,285.25 324.37,285.25 324.37,289.65 330.49,289.61 		"/>
		<polygon class="st1" points="330.49,291.51 324.37,291.51 324.37,295.91 330.49,295.87 		"/>
		<polygon class="st1" points="330.49,297.77 324.37,297.77 324.37,302.17 330.49,302.13 		"/>
		<rect x="371.12" y="271.38" class="st1" width="1.57" height="47.27"/>
		<rect x="374.46" y="271.38" class="st1" width="1.57" height="47.27"/>
		<rect x="377.8" y="271.38" class="st1" width="1.57" height="47.27"/>
		<polygon class="st1" points="362.68,275.66 362.68,277.97 358.88,278 358.88,275.66 		"/>
		<path class="st1" d="M375.48,260.4c-2.59,1.29-5.2,2.59-7.79,3.88v57.15h-2.23v-49.38h-8.91v62.14H360h1.01v-12.21h21.36
			c0.3-19.42,0.9-58.26,0.9-58.26S378.07,261.51,375.48,260.4z M362.68,290.49l-3.8,0.08v-6.82h3.8V290.49z M362.68,282.4l-3.8,0.08
			v-6.82h3.8V282.4z M372.69,318.66h-1.57v-47.27h1.57V318.66z M376.03,318.66h-1.57v-47.27h1.57V318.66z M379.37,318.66h-1.57
			v-47.27h1.57V318.66z"/>
		<path class="st1" d="M356.55,316.44c-1.48,0-2.97,0-4.45,0c0,2.04,0,4.07,0,6.1c-1.86,0-3.71,0-5.57,0c0-13.5,0-27,0-40.5
			c-9.65,0-19.29,0-28.94,0c0,7.4,0,14.8,0,22.19c-2.97,0-5.93,0-8.91,0c0,2.22,0,4.44,0,6.66c-4.45,0-8.91,0-13.36,0
			c0,7.21,0,14.43,0,21.64c-3.34,0-6.68,0-10.02,0v3.13h-11.8"/>
		<path class="st1" d="M398.85,328.09"/>
		<line class="st1" x1="317.59" y1="334.19" x2="317.59" y2="304.23"/>
		<line class="st1" x1="308.69" y1="334.19" x2="308.69" y2="310.89"/>
		<path class="st1" d="M350.99,334.75"/>
		<path class="st1" d="M318,334.75"/>
		<line class="st1" x1="346.53" y1="334.19" x2="346.53" y2="322.54"/>
		<polyline class="st1" points="356.55,334.19 346.53,334.19 317.59,334.19 308.69,334.19 		"/>
		<polyline class="st1" points="361.01,334.19 390.97,334.19 390.97,321.83 361.01,321.99 		"/>
		<polyline class="st1" points="567.93,334.6 488.6,334.19 488.6,327.32 484.62,325.42 484.62,334.19 467.49,334.19 467.49,317.71 
			459.33,309.54 450.34,318.54 450.34,334.19 447.09,334.19 434.48,334.19 434.48,305.9 434.48,304 433.86,303.38 		"/>
		<polyline class="st1" points="401.05,334.6 401.05,321.99 414.29,321.99 414.29,301.18 425.33,294.85 		"/>
		<line class="st1" x1="433.42" y1="334.75" x2="389.75" y2="334.6"/>
	</g>
	<polygon class="st1" points="411.27,301.76 411.27,287.59 407.56,287.59 407.86,303.54 407.86,314.27 411.27,314.27 	"/>
	<polyline class="st1" points="419.71,297.98 419.71,287.59 416.75,287.59 416.75,298.74 416.75,299.77 	"/>
	<polyline class="st1" points="425.01,295.02 425.01,288.64 425.01,287.59 425.01,283.8 425.01,283.67 404.42,283.67 402.57,283.67 
		402.57,287.45 402.57,321.99 	"/>
	<line class="st1" x1="395.11" y1="283.03" x2="404.35" y2="283.03"/>
	<line class="st1" x1="400.76" y1="288.84" x2="402.46" y2="288.84"/>
	<polygon class="st1" points="447.09,302.91 434.48,303.36 433.86,303.38 425.33,294.85 434.48,295.42 437.74,295.63 	"/>
	<line class="st1" x1="447.09" y1="302.91" x2="447.09" y2="334.19"/>
</g>
<line class="st1" x1="425.01" y1="283.67" x2="434.91" y2="285.25"/>
<polyline class="st1" points="394.96,283.03 400.76,288.84 400.76,322.8 "/>
</svg>
